<mxfile host="65bd71144e">
    <diagram id="L26-A6pw9CpuV833iA0x" name="Page-1">
        <mxGraphModel dx="423" dy="769" grid="1" gridSize="10" guides="1" tooltips="1" connect="1" arrows="1" fold="1" page="1" pageScale="1" pageWidth="1654" pageHeight="2336" math="0" shadow="0">
            <root>
                <mxCell id="0"/>
                <mxCell id="1" parent="0"/>
                <mxCell id="28" value="" style="group" parent="1" vertex="1" connectable="0">
                    <mxGeometry x="70" y="120" width="90" height="110" as="geometry"/>
                </mxCell>
                <mxCell id="4" value="" style="rounded=0;whiteSpace=wrap;html=1;" parent="28" vertex="1">
                    <mxGeometry x="10" width="80" height="80" as="geometry"/>
                </mxCell>
                <mxCell id="5" value="Terminal" style="text;html=1;align=center;verticalAlign=middle;resizable=0;points=[];autosize=1;strokeColor=none;fillColor=none;" parent="28" vertex="1">
                    <mxGeometry x="20" y="90" width="60" height="20" as="geometry"/>
                </mxCell>
                <mxCell id="7" value="Keyboard" style="text;html=1;align=right;verticalAlign=middle;resizable=0;points=[];autosize=1;strokeColor=none;fillColor=none;" parent="28" vertex="1">
                    <mxGeometry y="10" width="70" height="20" as="geometry"/>
                </mxCell>
                <mxCell id="8" value="Screen" style="text;html=1;align=right;verticalAlign=middle;resizable=0;points=[];autosize=1;strokeColor=none;fillColor=none;" parent="28" vertex="1">
                    <mxGeometry x="20" y="50" width="50" height="20" as="geometry"/>
                </mxCell>
                <mxCell id="20" value="" style="verticalLabelPosition=bottom;verticalAlign=top;html=1;shape=mxgraph.basic.half_circle;rotation=-180;direction=south;fillColor=#f5f5f5;fontColor=#333333;strokeColor=#666666;flipV=1;flipH=1;" parent="28" vertex="1">
                    <mxGeometry x="80" y="50" width="10" height="20" as="geometry"/>
                </mxCell>
                <mxCell id="21" value="" style="verticalLabelPosition=bottom;verticalAlign=top;html=1;shape=mxgraph.basic.half_circle;rotation=-180;direction=south;fillColor=#f5f5f5;fontColor=#333333;strokeColor=#666666;flipH=1;" parent="28" vertex="1">
                    <mxGeometry x="80" y="10" width="10" height="20" as="geometry"/>
                </mxCell>
                <mxCell id="3" value="villas pipe&lt;br&gt;lab3.conf&lt;br&gt;udp_node1" style="text;html=1;align=center;verticalAlign=middle;resizable=0;points=[];autosize=1;strokeColor=none;fillColor=none;" parent="1" vertex="1">
                    <mxGeometry x="400" y="210" width="80" height="50" as="geometry"/>
                </mxCell>
                <mxCell id="77" style="edgeStyle=orthogonalEdgeStyle;html=1;exitX=1;exitY=0.75;exitDx=0;exitDy=0;entryX=0.5;entryY=0;entryDx=0;entryDy=0;entryPerimeter=0;" edge="1" parent="1" source="2" target="52">
                    <mxGeometry relative="1" as="geometry"/>
                </mxCell>
                <mxCell id="2" value="" style="rounded=0;whiteSpace=wrap;html=1;" parent="1" vertex="1">
                    <mxGeometry x="400" y="120" width="80" height="80" as="geometry"/>
                </mxCell>
                <mxCell id="9" value="" style="shape=image;verticalLabelPosition=bottom;labelBackgroundColor=#ffffff;verticalAlign=top;aspect=fixed;imageAspect=0;image=data:image/svg+xml,PHN2ZyB4bWxuczpkYz0iaHR0cDovL3B1cmwub3JnL2RjL2VsZW1lbnRzLzEuMS8iIHhtbG5zOmNjPSJodHRwOi8vY3JlYXRpdmVjb21tb25zLm9yZy9ucyMiIHhtbG5zOnJkZj0iaHR0cDovL3d3dy53My5vcmcvMTk5OS8wMi8yMi1yZGYtc3ludGF4LW5zIyIgeG1sbnM6c3ZnPSJodHRwOi8vd3d3LnczLm9yZy8yMDAwL3N2ZyIgeG1sbnM9Imh0dHA6Ly93d3cudzMub3JnLzIwMDAvc3ZnIiB4bWxuczpzb2RpcG9kaT0iaHR0cDovL3NvZGlwb2RpLnNvdXJjZWZvcmdlLm5ldC9EVEQvc29kaXBvZGktMC5kdGQiIHhtbG5zOmlua3NjYXBlPSJodHRwOi8vd3d3Lmlua3NjYXBlLm9yZy9uYW1lc3BhY2VzL2lua3NjYXBlIiB3aWR0aD0iMTQ5LjcxMTY1bW0iIGhlaWdodD0iMTQ5LjcxMTY1bW0iIHZpZXdCb3g9IjAgMCAxNDkuNzExNjUgMTQ5LjcxMTY1IiB2ZXJzaW9uPSIxLjEiIGlkPSJzdmc4IiBpbmtzY2FwZTp2ZXJzaW9uPSIwLjkxK2RldmVsIHIxNDY0NyBjdXN0b20iIHNvZGlwb2RpOmRvY25hbWU9InZpbGxhc19ub2RlLnN2ZyI+CiAgPGRlZnMgaWQ9ImRlZnMyIi8+CiAgPHNvZGlwb2RpOm5hbWVkdmlldyBpZD0iYmFzZSIgcGFnZWNvbG9yPSIjZmZmZmZmIiBib3JkZXJjb2xvcj0iIzY2NjY2NiIgYm9yZGVyb3BhY2l0eT0iMS4wIiBpbmtzY2FwZTpwYWdlb3BhY2l0eT0iMC4wIiBpbmtzY2FwZTpwYWdlc2hhZG93PSIyIiBpbmtzY2FwZTp6b29tPSIxLjA5NDE3NDgiIGlua3NjYXBlOmN4PSIyODIuNTczMzkiIGlua3NjYXBlOmN5PSIyODUuMTA1ODciIGlua3NjYXBlOmRvY3VtZW50LXVuaXRzPSJtbSIgaW5rc2NhcGU6Y3VycmVudC1sYXllcj0ibGF5ZXIxIiBzaG93Z3JpZD0iZmFsc2UiIGlua3NjYXBlOnNuYXAtc21vb3RoLW5vZGVzPSJ0cnVlIiBpbmtzY2FwZTpzbmFwLWJib3g9InRydWUiIGlua3NjYXBlOnNuYXAtYmJveC1lZGdlLW1pZHBvaW50cz0idHJ1ZSIgaW5rc2NhcGU6YmJveC1ub2Rlcz0idHJ1ZSIgaW5rc2NhcGU6b2JqZWN0LXBhdGhzPSJ0cnVlIiBpbmtzY2FwZTpzbmFwLWludGVyc2VjdGlvbi1wYXRocz0iZmFsc2UiIGlua3NjYXBlOmJib3gtcGF0aHM9ImZhbHNlIiBpbmtzY2FwZTpzbmFwLW1pZHBvaW50cz0idHJ1ZSIgaW5rc2NhcGU6d2luZG93LXdpZHRoPSIxNDQwIiBpbmtzY2FwZTp3aW5kb3ctaGVpZ2h0PSI4NTEiIGlua3NjYXBlOndpbmRvdy14PSIwIiBpbmtzY2FwZTp3aW5kb3cteT0iMjMiIGlua3NjYXBlOndpbmRvdy1tYXhpbWl6ZWQ9IjEiIGZpdC1tYXJnaW4tdG9wPSIwIiBmaXQtbWFyZ2luLWxlZnQ9IjAiIGZpdC1tYXJnaW4tcmlnaHQ9IjAiIGZpdC1tYXJnaW4tYm90dG9tPSIwIiBpbmtzY2FwZTptZWFzdXJlLXN0YXJ0PSIzNy45MDM5LDQyNC4zOCIgaW5rc2NhcGU6bWVhc3VyZS1lbmQ9IjEwMS4zODYsNDYxLjAzMSIgaW5rc2NhcGU6c25hcC1nbG9iYWw9InRydWUiLz4KICAKICA8ZyBpbmtzY2FwZTpsYWJlbD0iRWJlbmUgMSIgaW5rc2NhcGU6Z3JvdXBtb2RlPSJsYXllciIgaWQ9ImxheWVyMSIgdHJhbnNmb3JtPSJ0cmFuc2xhdGUoOS4yNjY3OTk5LC05LjY4NTQ5NzkpIj4KICAgIDxnIGlkPSJnNTAwNSIgdHJhbnNmb3JtPSJtYXRyaXgoMC45NjIzMTkxLDAsMCwwLjk2MjMxOTEsMi43NDg0NjUxLDMuOTM4NTY4NCkiPgogICAgICA8cGF0aCBpbmtzY2FwZTpjb25uZWN0b3ItY3VydmF0dXJlPSIwIiBpZD0icGF0aDQyMTYiIGQ9Im0gNjMuNTg3ODkxLDkuNjg1NTQ2OSBjIDYuMDZlLTQsNy4wNjgzNTkxIDAuMDAxNSwxNC4xMzY3MTkxIDAuMDAyLDIxLjIwNTA3ODEgMTUuODE5NjczLDkuMTM1ODczIDMxLjY0MDczNCwxOC4yNjkzNDIgNDcuNDYwOTM5LDI3LjQwNDI5NyAwLDE3LjQ5ODA0NyAwLDM0Ljk5NjA5NCAwLDUyLjQ5NDEzOCAtNS40OTY3MiwzLjE3MzIzIC0xMC45OTM4MSw2LjM0NTc5IC0xNi40OTAyMzYsOS41MTk1MyA2LjUxMzcxNiw0LjQ2MzE0IDEzLjAyNzk3Niw4LjkyNTQ2IDE5LjU0Mjk3NiwxMy4zODY3MiA2LjEwNTM0LC0zLjUyMjA1IDEyLjIwODc3LC03LjA0NzQyIDE4LjMxMjUsLTEwLjU3MjI2IDAsLTI1LjcyMDcwNiAwLC01MS40NDE0MDkgMCwtNzcuMTYyMTEyIEMgMTA5LjQ3NDAxLDMyLjcxMjk3NyA4Ni41MzAyMTUsMTkuNDY4MTEyIDYzLjU4Nzg5MSw2LjIyMDcwMzEgYyAwLDEuMTU0OTQ3OSAwLDIuMzA5ODk1OSAwLDMuNDY0ODQzOCB6IE0gLTEuMjM4MjgxMiw0Ny4xMTMyODEgYyAwLDI1LjMzNzI0IC0xMGUtOCw1MC42NzQ0NzkgMCw3Ni4wMTE3MTkgMjIuMjc1NDk0MiwxMi44NjA5NyA0NC41NTEyMjAyLDI1LjcyMTU1IDY2LjgyODEyNTIsMzguNTgwMDggNS44MTE3LC0zLjM1Mzk1IDExLjYyMzE0OCwtNi43MDgzNCAxNy40MzM1OTQsLTEwLjA2NDQ2IDAuMDI1NDYsLTguMjM3NjIgMC4wNTA2NiwtMTYuNDc1MjUgMC4wNzQyMiwtMjQuNzEyODkgLTUuODM1NzYsMy4zNzA1OCAtMTEuNjczMjQ3LDYuNzM4MTYgLTE3LjUwOTc2NSwxMC4xMDc0MyAtMTUuMTUzNjQ2LC04Ljc0ODA1IC0zMC4zMDcyOTIsLTE3LjQ5NjEgLTQ1LjQ2MDkzOCwtMjYuMjQ0MTQgMCwtMTguMjY4ODg1IDAsLTM2LjUzNzc2NSAwLC01NC44MDY2NDUgLTcuMTIwOTk5LC00LjExMzI3IC0xNC4yNDM5NjQzLC04LjIyMzEzNiAtMjEuMzY1MjM0MiwtMTIuMzM1OTM3IC0xZS03LDEuMTU0OTQ3IDAsMi4zMDk4OTUgMCwzLjQ2NDg0MyB6IiBzdHlsZT0iY29sb3I6IzAwMDAwMDtmb250LXN0eWxlOm5vcm1hbDtmb250LXZhcmlhbnQ6bm9ybWFsO2ZvbnQtd2VpZ2h0Om5vcm1hbDtmb250LXN0cmV0Y2g6bm9ybWFsO2ZvbnQtc2l6ZTptZWRpdW07bGluZS1oZWlnaHQ6bm9ybWFsO2ZvbnQtZmFtaWx5OnNhbnMtc2VyaWY7Zm9udC12YXJpYW50LWxpZ2F0dXJlczpub3JtYWw7Zm9udC12YXJpYW50LXBvc2l0aW9uOm5vcm1hbDtmb250LXZhcmlhbnQtY2Fwczpub3JtYWw7Zm9udC12YXJpYW50LW51bWVyaWM6bm9ybWFsO2ZvbnQtdmFyaWFudC1hbHRlcm5hdGVzOm5vcm1hbDtmb250LWZlYXR1cmUtc2V0dGluZ3M6bm9ybWFsO3RleHQtaW5kZW50OjA7dGV4dC1hbGlnbjpzdGFydDt0ZXh0LWRlY29yYXRpb246bm9uZTt0ZXh0LWRlY29yYXRpb24tbGluZTpub25lO3RleHQtZGVjb3JhdGlvbi1zdHlsZTpzb2xpZDt0ZXh0LWRlY29yYXRpb24tY29sb3I6IzAwMDAwMDtsZXR0ZXItc3BhY2luZzpub3JtYWw7d29yZC1zcGFjaW5nOm5vcm1hbDt0ZXh0LXRyYW5zZm9ybTpub25lO3dyaXRpbmctbW9kZTpsci10YjtkaXJlY3Rpb246bHRyO3RleHQtb3JpZW50YXRpb246bWl4ZWQ7ZG9taW5hbnQtYmFzZWxpbmU6YXV0bztiYXNlbGluZS1zaGlmdDpiYXNlbGluZTt0ZXh0LWFuY2hvcjpzdGFydDt3aGl0ZS1zcGFjZTpub3JtYWw7c2hhcGUtcGFkZGluZzowO2NsaXAtcnVsZTpub256ZXJvO2Rpc3BsYXk6aW5saW5lO292ZXJmbG93OnZpc2libGU7dmlzaWJpbGl0eTp2aXNpYmxlO29wYWNpdHk6MTtpc29sYXRpb246YXV0bzttaXgtYmxlbmQtbW9kZTpub3JtYWw7Y29sb3ItaW50ZXJwb2xhdGlvbjpzUkdCO2NvbG9yLWludGVycG9sYXRpb24tZmlsdGVyczpsaW5lYXJSR0I7c29saWQtY29sb3I6IzAwMDAwMDtzb2xpZC1vcGFjaXR5OjE7ZmlsbDojMDA3M2Q5O2ZpbGwtb3BhY2l0eToxO2ZpbGwtcnVsZTpub256ZXJvO3N0cm9rZTpub25lO3N0cm9rZS13aWR0aDoxNy4zNjQ5OTk3NztzdHJva2UtbGluZWNhcDpidXR0O3N0cm9rZS1saW5lam9pbjptaXRlcjtzdHJva2UtbWl0ZXJsaW1pdDo0O3N0cm9rZS1kYXNoYXJyYXk6bm9uZTtzdHJva2UtZGFzaG9mZnNldDowO3N0cm9rZS1vcGFjaXR5OjE7Y29sb3ItcmVuZGVyaW5nOmF1dG87aW1hZ2UtcmVuZGVyaW5nOmF1dG87c2hhcGUtcmVuZGVyaW5nOmF1dG87dGV4dC1yZW5kZXJpbmc6YXV0bztlbmFibGUtYmFja2dyb3VuZDphY2N1bXVsYXRlIi8+CiAgICAgIDxwYXRoIGlua3NjYXBlOmNvbm5lY3Rvci1jdXJ2YXR1cmU9IjAiIGlkPSJwYXRoNDIzNCIgZD0iTSA2MC44MzQ2NDYsNy44MTA3NTA0IEMgNTUuNDExNDMyLDEwLjk0MTkxMSA0OS45ODc5NDIsMTQuMDcyNTkxIDQ0LjU2NDg5NSwxNy4yMDQwNCA0NC45ODI5NCwyOC4yMTc3NDUgNDUuMzk0OTk0LDM5LjIzMTY4IDQ1LjgxMDc2LDUwLjI0NTQ3MyAzNi40NDIzODYsNDQuNDAxMjUgMjcuMDc1NDcsMzguNTU0Njg4IDE3LjcwNjE4MiwzMi43MTE5MyAxMS4zMzE0NzMsMzYuMzkxODUyIDQuOTU2ODM0OSw0MC4wNzE4OTkgLTEuNDE3NDA3NSw0My43NTI2MyAyMC4yNTEzMTgsNTYuMjYzOTIyIDQxLjkyMTE2Niw2OC43NzMyNjcgNjMuNTg5ODkxLDgxLjI4NDU1NyA2My41ODk0ODQsNTYuMjYzMjczIDYzLjU4ODUxNCwzMS4yNDE5ODggNjMuNTg4MDU1LDYuMjIwNzAzMSA2Mi42NzAyMzgsNi43NTA3MTg5IDYxLjc1MjQyLDcuMjgwNzM0NiA2MC44MzQ2MDMsNy44MTA3NTA0IFoiIHN0eWxlPSJmaWxsOiMzN2ExZmY7ZmlsbC1vcGFjaXR5OjE7ZmlsbC1ydWxlOmV2ZW5vZGQ7c3Ryb2tlOm5vbmU7c3Ryb2tlLXdpZHRoOjAuNTE4NTY2OTc7c3Ryb2tlLWxpbmVjYXA6YnV0dDtzdHJva2UtbGluZWpvaW46bWl0ZXI7c3Ryb2tlLW1pdGVybGltaXQ6NDtzdHJva2UtZGFzaGFycmF5Om5vbmU7c3Ryb2tlLW9wYWNpdHk6MSIvPgogICAgICA8cGF0aCBpbmtzY2FwZTpjb25uZWN0b3ItY3VydmF0dXJlPSIwIiBpZD0icGF0aDQyNTUiIGQ9Im0gNzQuMzAyNzM0LDEwMi44MzM5OCBjIDAsMTcuOTQxNDEgMCwzNS44ODI4MiAwLDUzLjgyNDIyIDUuMjM1MDMxLC0zLjA0NDczIDEwLjQ3MTUxLC02LjA4Njk3IDE1LjcwNzAzMiwtOS4xMzA4NiAtMC4wODc5NywtNy4yMTk0MiAtMC4xODAwMjgsLTE0LjQzODc5IC0wLjI2OTUzMiwtMjEuNjU4MiA2LjAxNDU3OSwzLjc5ODQyIDEyLjAyNzI2Niw3LjU5OTg0IDE4LjA0Mjk2NiwxMS4zOTY0OCA1LjM3NTcyLC0zLjA4NjEzIDEwLjc1MzM5LC02LjE2ODg2IDE2LjEzMDg2LC05LjI1MTk1IC0xNi41MzY1OCwtOS41NDkwOSAtMzMuMDc0NTg0LC0xOS4wOTU3MiAtNDkuNjExMzI2LC0yOC42NDQ1MjkgMCwxLjE1NDk0OSAwLDIuMzA5ODk5IDAsMy40NjQ4MzkgeiIgc3R5bGU9ImZpbGw6IzM3YTFmZjtmaWxsLW9wYWNpdHk6MTtmaWxsLXJ1bGU6ZXZlbm9kZDtzdHJva2U6bm9uZTtzdHJva2Utd2lkdGg6MC4zODAwMDk4MztzdHJva2UtbGluZWNhcDpidXR0O3N0cm9rZS1saW5lam9pbjptaXRlcjtzdHJva2UtbWl0ZXJsaW1pdDo0O3N0cm9rZS1kYXNoYXJyYXk6bm9uZTtzdHJva2Utb3BhY2l0eToxIi8+CiAgICAgIDxwYXRoIGlua3NjYXBlOmNvbm5lY3Rvci1jdXJ2YXR1cmU9IjAiIGlkPSJwYXRoNDMyOSIgZD0iTSA2NS41MTk1MzEsNy42ODc1IEMgMzAuOTUyMzQyLDcuMjI4ODgyMSAtMS43NTU5NTA0LDMyLjkyODIxNiAtOS4wOTg1NTcyLDY2Ljc3MDI5IGMgLTguOTQ0MTk0OCwzNC4zNjI1MyA5LjkxMDMyMjc0LDczLjE5MzE2IDQyLjQzMzEwMDIsODcuNDM5MTIgMzEuOTA1MzMsMTUuNTk1NSA3My42OTczNjcsNC44MzA2IDk0LjEyNTI5NywtMjQuMjEzMDMgQyAxNDkuMDc3MywxMDEuODIwODEgMTQ2Ljg0NTc5LDU4LjcyNDY0MiAxMjIuNDI4MDUsMzIuOTMzNTMxIDEwOC4xNzAxMiwxNi45MjIwNzIgODYuOTE1NTQyLDcuNjk1MTgzIDY1LjUxOTUzMSw3LjY4NzUgWiIgc3R5bGU9Im9wYWNpdHk6MTtmaWxsOm5vbmU7ZmlsbC1vcGFjaXR5OjE7c3Ryb2tlOm5vbmU7c3Ryb2tlLXdpZHRoOjMuNzAwMDAwMDU7c3Ryb2tlLWxpbmVjYXA6YnV0dDtzdHJva2UtbGluZWpvaW46bWl0ZXI7c3Ryb2tlLW1pdGVybGltaXQ6NDtzdHJva2UtZGFzaGFycmF5Om5vbmU7c3Ryb2tlLWRhc2hvZmZzZXQ6MDtzdHJva2Utb3BhY2l0eToxIi8+CiAgICAgIDxwYXRoIGlua3NjYXBlOmNvbm5lY3Rvci1jdXJ2YXR1cmU9IjAiIGlkPSJwYXRoNDk3OCIgZD0ibSAyMC4xMjY5NTYsNTUuOTg0Mzc0IC0yMS4zNjUyMzU0LC0xMi4zMzU5MzYgLTEuOGUtNiwxMi42MDM2NjUgMjEuMzY1MjM3Miw3LjY4MzQ5MiB6IiBzdHlsZT0iZmlsbDojMDA1YWE5O2ZpbGwtb3BhY2l0eToxO2ZpbGwtcnVsZTpldmVub2RkO3N0cm9rZTpub25lO3N0cm9rZS13aWR0aDowLjI2NDU4MzMycHg7c3Ryb2tlLWxpbmVjYXA6YnV0dDtzdHJva2UtbGluZWpvaW46bWl0ZXI7c3Ryb2tlLW9wYWNpdHk6MSIvPgogICAgICA8cGF0aCBzb2RpcG9kaTpub2RldHlwZXM9ImNjY2NjIiBzdHlsZT0iZmlsbDojMDA1YWE5O2ZpbGwtb3BhY2l0eToxO2ZpbGwtcnVsZTpldmVub2RkO3N0cm9rZTpub25lO3N0cm9rZS13aWR0aDowLjI2NDU4MzMycHg7c3Ryb2tlLWxpbmVjYXA6YnV0dDtzdHJva2UtbGluZWpvaW46bWl0ZXI7c3Ryb2tlLW9wYWNpdHk6MSIgZD0ibSA2Ny4wMzk1MzksMTM2LjE5NzIxIDcuMjYzMTk1LC00LjE0Mzk0IHYgMjQuNjA0OTMgbCAtMi4zMTI4NjQsMS4zNTMwOCB6IiBpZD0icGF0aDQ5ODAiIGlua3NjYXBlOmNvbm5lY3Rvci1jdXJ2YXR1cmU9IjAiLz4KICAgIDwvZz4KICA8L2c+Cjwvc3ZnPg==;" parent="1" vertex="1">
                    <mxGeometry x="410" y="130" width="60" height="60" as="geometry"/>
                </mxCell>
                <mxCell id="22" value="" style="verticalLabelPosition=bottom;verticalAlign=top;html=1;shape=mxgraph.basic.half_circle;rotation=-180;direction=south;flipH=0;fillColor=#f5f5f5;fontColor=#333333;strokeColor=#666666;" parent="1" vertex="1">
                    <mxGeometry x="400" y="170" width="10" height="20" as="geometry"/>
                </mxCell>
                <mxCell id="75" style="edgeStyle=orthogonalEdgeStyle;html=1;exitX=0.5;exitY=0;exitDx=0;exitDy=0;exitPerimeter=0;entryX=0.5;entryY=0;entryDx=0;entryDy=0;entryPerimeter=0;" edge="1" parent="1" source="31" target="20">
                    <mxGeometry relative="1" as="geometry">
                        <Array as="points">
                            <mxPoint x="360" y="140"/>
                            <mxPoint x="360" y="80"/>
                            <mxPoint x="200" y="80"/>
                            <mxPoint x="200" y="180"/>
                        </Array>
                    </mxGeometry>
                </mxCell>
                <mxCell id="31" value="" style="verticalLabelPosition=bottom;verticalAlign=top;html=1;shape=mxgraph.basic.half_circle;rotation=-180;direction=south;flipH=0;fillColor=#f5f5f5;fontColor=#333333;strokeColor=#666666;" parent="1" vertex="1">
                    <mxGeometry x="400" y="130" width="10" height="20" as="geometry"/>
                </mxCell>
                <mxCell id="48" value="" style="rounded=0;whiteSpace=wrap;html=1;" parent="1" vertex="1">
                    <mxGeometry x="560" y="120" width="80" height="80" as="geometry"/>
                </mxCell>
                <mxCell id="49" value="RTDS&lt;br&gt;GTNET-SKT&lt;br&gt;Card" style="text;html=1;align=center;verticalAlign=middle;resizable=0;points=[];autosize=1;strokeColor=none;fillColor=none;" parent="1" vertex="1">
                    <mxGeometry x="560" y="210" width="80" height="50" as="geometry"/>
                </mxCell>
                <mxCell id="52" value="" style="verticalLabelPosition=bottom;verticalAlign=top;html=1;shape=mxgraph.basic.half_circle;rotation=-180;direction=south;fillColor=#f5f5f5;fontColor=#333333;strokeColor=#666666;" parent="1" vertex="1">
                    <mxGeometry x="560" y="170" width="10" height="20" as="geometry"/>
                </mxCell>
                <mxCell id="76" value="" style="edgeStyle=orthogonalEdgeStyle;html=1;entryX=1;entryY=0.25;entryDx=0;entryDy=0;" edge="1" parent="1" source="53" target="2">
                    <mxGeometry relative="1" as="geometry"/>
                </mxCell>
                <mxCell id="53" value="" style="verticalLabelPosition=bottom;verticalAlign=top;html=1;shape=mxgraph.basic.half_circle;rotation=-180;direction=south;fillColor=#f5f5f5;fontColor=#333333;strokeColor=#666666;" parent="1" vertex="1">
                    <mxGeometry x="560" y="130" width="10" height="20" as="geometry"/>
                </mxCell>
                <mxCell id="68" value="stdout" style="edgeStyle=orthogonalEdgeStyle;html=1;exitX=1;exitY=0.75;exitDx=0;exitDy=0;entryX=0;entryY=0.75;entryDx=0;entryDy=0;" edge="1" parent="1" source="71">
                    <mxGeometry y="-10" relative="1" as="geometry">
                        <mxPoint as="offset"/>
                        <mxPoint x="400" y="180" as="targetPoint"/>
                    </mxGeometry>
                </mxCell>
                <mxCell id="69" value="villas signal&lt;br&gt;mixed -v4 -r5000" style="text;html=1;align=center;verticalAlign=middle;resizable=0;points=[];autosize=1;strokeColor=none;fillColor=none;" vertex="1" parent="1">
                    <mxGeometry x="225" y="205" width="110" height="30" as="geometry"/>
                </mxCell>
                <mxCell id="70" value="" style="group" vertex="1" connectable="0" parent="1">
                    <mxGeometry x="240" y="120" width="80" height="80" as="geometry"/>
                </mxCell>
                <mxCell id="71" value="" style="rounded=0;whiteSpace=wrap;html=1;" vertex="1" parent="70">
                    <mxGeometry width="80" height="80" as="geometry"/>
                </mxCell>
                <mxCell id="72" value="" style="shape=image;verticalLabelPosition=bottom;labelBackgroundColor=#ffffff;verticalAlign=top;aspect=fixed;imageAspect=0;image=data:image/svg+xml,PHN2ZyB4bWxuczpkYz0iaHR0cDovL3B1cmwub3JnL2RjL2VsZW1lbnRzLzEuMS8iIHhtbG5zOmNjPSJodHRwOi8vY3JlYXRpdmVjb21tb25zLm9yZy9ucyMiIHhtbG5zOnJkZj0iaHR0cDovL3d3dy53My5vcmcvMTk5OS8wMi8yMi1yZGYtc3ludGF4LW5zIyIgeG1sbnM6c3ZnPSJodHRwOi8vd3d3LnczLm9yZy8yMDAwL3N2ZyIgeG1sbnM9Imh0dHA6Ly93d3cudzMub3JnLzIwMDAvc3ZnIiB4bWxuczpzb2RpcG9kaT0iaHR0cDovL3NvZGlwb2RpLnNvdXJjZWZvcmdlLm5ldC9EVEQvc29kaXBvZGktMC5kdGQiIHhtbG5zOmlua3NjYXBlPSJodHRwOi8vd3d3Lmlua3NjYXBlLm9yZy9uYW1lc3BhY2VzL2lua3NjYXBlIiB3aWR0aD0iMTQ5LjcxMTY1bW0iIGhlaWdodD0iMTQ5LjcxMTY1bW0iIHZpZXdCb3g9IjAgMCAxNDkuNzExNjUgMTQ5LjcxMTY1IiB2ZXJzaW9uPSIxLjEiIGlkPSJzdmc4IiBpbmtzY2FwZTp2ZXJzaW9uPSIwLjkxK2RldmVsIHIxNDY0NyBjdXN0b20iIHNvZGlwb2RpOmRvY25hbWU9InZpbGxhc19ub2RlLnN2ZyI+CiAgPGRlZnMgaWQ9ImRlZnMyIi8+CiAgPHNvZGlwb2RpOm5hbWVkdmlldyBpZD0iYmFzZSIgcGFnZWNvbG9yPSIjZmZmZmZmIiBib3JkZXJjb2xvcj0iIzY2NjY2NiIgYm9yZGVyb3BhY2l0eT0iMS4wIiBpbmtzY2FwZTpwYWdlb3BhY2l0eT0iMC4wIiBpbmtzY2FwZTpwYWdlc2hhZG93PSIyIiBpbmtzY2FwZTp6b29tPSIxLjA5NDE3NDgiIGlua3NjYXBlOmN4PSIyODIuNTczMzkiIGlua3NjYXBlOmN5PSIyODUuMTA1ODciIGlua3NjYXBlOmRvY3VtZW50LXVuaXRzPSJtbSIgaW5rc2NhcGU6Y3VycmVudC1sYXllcj0ibGF5ZXIxIiBzaG93Z3JpZD0iZmFsc2UiIGlua3NjYXBlOnNuYXAtc21vb3RoLW5vZGVzPSJ0cnVlIiBpbmtzY2FwZTpzbmFwLWJib3g9InRydWUiIGlua3NjYXBlOnNuYXAtYmJveC1lZGdlLW1pZHBvaW50cz0idHJ1ZSIgaW5rc2NhcGU6YmJveC1ub2Rlcz0idHJ1ZSIgaW5rc2NhcGU6b2JqZWN0LXBhdGhzPSJ0cnVlIiBpbmtzY2FwZTpzbmFwLWludGVyc2VjdGlvbi1wYXRocz0iZmFsc2UiIGlua3NjYXBlOmJib3gtcGF0aHM9ImZhbHNlIiBpbmtzY2FwZTpzbmFwLW1pZHBvaW50cz0idHJ1ZSIgaW5rc2NhcGU6d2luZG93LXdpZHRoPSIxNDQwIiBpbmtzY2FwZTp3aW5kb3ctaGVpZ2h0PSI4NTEiIGlua3NjYXBlOndpbmRvdy14PSIwIiBpbmtzY2FwZTp3aW5kb3cteT0iMjMiIGlua3NjYXBlOndpbmRvdy1tYXhpbWl6ZWQ9IjEiIGZpdC1tYXJnaW4tdG9wPSIwIiBmaXQtbWFyZ2luLWxlZnQ9IjAiIGZpdC1tYXJnaW4tcmlnaHQ9IjAiIGZpdC1tYXJnaW4tYm90dG9tPSIwIiBpbmtzY2FwZTptZWFzdXJlLXN0YXJ0PSIzNy45MDM5LDQyNC4zOCIgaW5rc2NhcGU6bWVhc3VyZS1lbmQ9IjEwMS4zODYsNDYxLjAzMSIgaW5rc2NhcGU6c25hcC1nbG9iYWw9InRydWUiLz4KICAKICA8ZyBpbmtzY2FwZTpsYWJlbD0iRWJlbmUgMSIgaW5rc2NhcGU6Z3JvdXBtb2RlPSJsYXllciIgaWQ9ImxheWVyMSIgdHJhbnNmb3JtPSJ0cmFuc2xhdGUoOS4yNjY3OTk5LC05LjY4NTQ5NzkpIj4KICAgIDxnIGlkPSJnNTAwNSIgdHJhbnNmb3JtPSJtYXRyaXgoMC45NjIzMTkxLDAsMCwwLjk2MjMxOTEsMi43NDg0NjUxLDMuOTM4NTY4NCkiPgogICAgICA8cGF0aCBpbmtzY2FwZTpjb25uZWN0b3ItY3VydmF0dXJlPSIwIiBpZD0icGF0aDQyMTYiIGQ9Im0gNjMuNTg3ODkxLDkuNjg1NTQ2OSBjIDYuMDZlLTQsNy4wNjgzNTkxIDAuMDAxNSwxNC4xMzY3MTkxIDAuMDAyLDIxLjIwNTA3ODEgMTUuODE5NjczLDkuMTM1ODczIDMxLjY0MDczNCwxOC4yNjkzNDIgNDcuNDYwOTM5LDI3LjQwNDI5NyAwLDE3LjQ5ODA0NyAwLDM0Ljk5NjA5NCAwLDUyLjQ5NDEzOCAtNS40OTY3MiwzLjE3MzIzIC0xMC45OTM4MSw2LjM0NTc5IC0xNi40OTAyMzYsOS41MTk1MyA2LjUxMzcxNiw0LjQ2MzE0IDEzLjAyNzk3Niw4LjkyNTQ2IDE5LjU0Mjk3NiwxMy4zODY3MiA2LjEwNTM0LC0zLjUyMjA1IDEyLjIwODc3LC03LjA0NzQyIDE4LjMxMjUsLTEwLjU3MjI2IDAsLTI1LjcyMDcwNiAwLC01MS40NDE0MDkgMCwtNzcuMTYyMTEyIEMgMTA5LjQ3NDAxLDMyLjcxMjk3NyA4Ni41MzAyMTUsMTkuNDY4MTEyIDYzLjU4Nzg5MSw2LjIyMDcwMzEgYyAwLDEuMTU0OTQ3OSAwLDIuMzA5ODk1OSAwLDMuNDY0ODQzOCB6IE0gLTEuMjM4MjgxMiw0Ny4xMTMyODEgYyAwLDI1LjMzNzI0IC0xMGUtOCw1MC42NzQ0NzkgMCw3Ni4wMTE3MTkgMjIuMjc1NDk0MiwxMi44NjA5NyA0NC41NTEyMjAyLDI1LjcyMTU1IDY2LjgyODEyNTIsMzguNTgwMDggNS44MTE3LC0zLjM1Mzk1IDExLjYyMzE0OCwtNi43MDgzNCAxNy40MzM1OTQsLTEwLjA2NDQ2IDAuMDI1NDYsLTguMjM3NjIgMC4wNTA2NiwtMTYuNDc1MjUgMC4wNzQyMiwtMjQuNzEyODkgLTUuODM1NzYsMy4zNzA1OCAtMTEuNjczMjQ3LDYuNzM4MTYgLTE3LjUwOTc2NSwxMC4xMDc0MyAtMTUuMTUzNjQ2LC04Ljc0ODA1IC0zMC4zMDcyOTIsLTE3LjQ5NjEgLTQ1LjQ2MDkzOCwtMjYuMjQ0MTQgMCwtMTguMjY4ODg1IDAsLTM2LjUzNzc2NSAwLC01NC44MDY2NDUgLTcuMTIwOTk5LC00LjExMzI3IC0xNC4yNDM5NjQzLC04LjIyMzEzNiAtMjEuMzY1MjM0MiwtMTIuMzM1OTM3IC0xZS03LDEuMTU0OTQ3IDAsMi4zMDk4OTUgMCwzLjQ2NDg0MyB6IiBzdHlsZT0iY29sb3I6IzAwMDAwMDtmb250LXN0eWxlOm5vcm1hbDtmb250LXZhcmlhbnQ6bm9ybWFsO2ZvbnQtd2VpZ2h0Om5vcm1hbDtmb250LXN0cmV0Y2g6bm9ybWFsO2ZvbnQtc2l6ZTptZWRpdW07bGluZS1oZWlnaHQ6bm9ybWFsO2ZvbnQtZmFtaWx5OnNhbnMtc2VyaWY7Zm9udC12YXJpYW50LWxpZ2F0dXJlczpub3JtYWw7Zm9udC12YXJpYW50LXBvc2l0aW9uOm5vcm1hbDtmb250LXZhcmlhbnQtY2Fwczpub3JtYWw7Zm9udC12YXJpYW50LW51bWVyaWM6bm9ybWFsO2ZvbnQtdmFyaWFudC1hbHRlcm5hdGVzOm5vcm1hbDtmb250LWZlYXR1cmUtc2V0dGluZ3M6bm9ybWFsO3RleHQtaW5kZW50OjA7dGV4dC1hbGlnbjpzdGFydDt0ZXh0LWRlY29yYXRpb246bm9uZTt0ZXh0LWRlY29yYXRpb24tbGluZTpub25lO3RleHQtZGVjb3JhdGlvbi1zdHlsZTpzb2xpZDt0ZXh0LWRlY29yYXRpb24tY29sb3I6IzAwMDAwMDtsZXR0ZXItc3BhY2luZzpub3JtYWw7d29yZC1zcGFjaW5nOm5vcm1hbDt0ZXh0LXRyYW5zZm9ybTpub25lO3dyaXRpbmctbW9kZTpsci10YjtkaXJlY3Rpb246bHRyO3RleHQtb3JpZW50YXRpb246bWl4ZWQ7ZG9taW5hbnQtYmFzZWxpbmU6YXV0bztiYXNlbGluZS1zaGlmdDpiYXNlbGluZTt0ZXh0LWFuY2hvcjpzdGFydDt3aGl0ZS1zcGFjZTpub3JtYWw7c2hhcGUtcGFkZGluZzowO2NsaXAtcnVsZTpub256ZXJvO2Rpc3BsYXk6aW5saW5lO292ZXJmbG93OnZpc2libGU7dmlzaWJpbGl0eTp2aXNpYmxlO29wYWNpdHk6MTtpc29sYXRpb246YXV0bzttaXgtYmxlbmQtbW9kZTpub3JtYWw7Y29sb3ItaW50ZXJwb2xhdGlvbjpzUkdCO2NvbG9yLWludGVycG9sYXRpb24tZmlsdGVyczpsaW5lYXJSR0I7c29saWQtY29sb3I6IzAwMDAwMDtzb2xpZC1vcGFjaXR5OjE7ZmlsbDojMDA3M2Q5O2ZpbGwtb3BhY2l0eToxO2ZpbGwtcnVsZTpub256ZXJvO3N0cm9rZTpub25lO3N0cm9rZS13aWR0aDoxNy4zNjQ5OTk3NztzdHJva2UtbGluZWNhcDpidXR0O3N0cm9rZS1saW5lam9pbjptaXRlcjtzdHJva2UtbWl0ZXJsaW1pdDo0O3N0cm9rZS1kYXNoYXJyYXk6bm9uZTtzdHJva2UtZGFzaG9mZnNldDowO3N0cm9rZS1vcGFjaXR5OjE7Y29sb3ItcmVuZGVyaW5nOmF1dG87aW1hZ2UtcmVuZGVyaW5nOmF1dG87c2hhcGUtcmVuZGVyaW5nOmF1dG87dGV4dC1yZW5kZXJpbmc6YXV0bztlbmFibGUtYmFja2dyb3VuZDphY2N1bXVsYXRlIi8+CiAgICAgIDxwYXRoIGlua3NjYXBlOmNvbm5lY3Rvci1jdXJ2YXR1cmU9IjAiIGlkPSJwYXRoNDIzNCIgZD0iTSA2MC44MzQ2NDYsNy44MTA3NTA0IEMgNTUuNDExNDMyLDEwLjk0MTkxMSA0OS45ODc5NDIsMTQuMDcyNTkxIDQ0LjU2NDg5NSwxNy4yMDQwNCA0NC45ODI5NCwyOC4yMTc3NDUgNDUuMzk0OTk0LDM5LjIzMTY4IDQ1LjgxMDc2LDUwLjI0NTQ3MyAzNi40NDIzODYsNDQuNDAxMjUgMjcuMDc1NDcsMzguNTU0Njg4IDE3LjcwNjE4MiwzMi43MTE5MyAxMS4zMzE0NzMsMzYuMzkxODUyIDQuOTU2ODM0OSw0MC4wNzE4OTkgLTEuNDE3NDA3NSw0My43NTI2MyAyMC4yNTEzMTgsNTYuMjYzOTIyIDQxLjkyMTE2Niw2OC43NzMyNjcgNjMuNTg5ODkxLDgxLjI4NDU1NyA2My41ODk0ODQsNTYuMjYzMjczIDYzLjU4ODUxNCwzMS4yNDE5ODggNjMuNTg4MDU1LDYuMjIwNzAzMSA2Mi42NzAyMzgsNi43NTA3MTg5IDYxLjc1MjQyLDcuMjgwNzM0NiA2MC44MzQ2MDMsNy44MTA3NTA0IFoiIHN0eWxlPSJmaWxsOiMzN2ExZmY7ZmlsbC1vcGFjaXR5OjE7ZmlsbC1ydWxlOmV2ZW5vZGQ7c3Ryb2tlOm5vbmU7c3Ryb2tlLXdpZHRoOjAuNTE4NTY2OTc7c3Ryb2tlLWxpbmVjYXA6YnV0dDtzdHJva2UtbGluZWpvaW46bWl0ZXI7c3Ryb2tlLW1pdGVybGltaXQ6NDtzdHJva2UtZGFzaGFycmF5Om5vbmU7c3Ryb2tlLW9wYWNpdHk6MSIvPgogICAgICA8cGF0aCBpbmtzY2FwZTpjb25uZWN0b3ItY3VydmF0dXJlPSIwIiBpZD0icGF0aDQyNTUiIGQ9Im0gNzQuMzAyNzM0LDEwMi44MzM5OCBjIDAsMTcuOTQxNDEgMCwzNS44ODI4MiAwLDUzLjgyNDIyIDUuMjM1MDMxLC0zLjA0NDczIDEwLjQ3MTUxLC02LjA4Njk3IDE1LjcwNzAzMiwtOS4xMzA4NiAtMC4wODc5NywtNy4yMTk0MiAtMC4xODAwMjgsLTE0LjQzODc5IC0wLjI2OTUzMiwtMjEuNjU4MiA2LjAxNDU3OSwzLjc5ODQyIDEyLjAyNzI2Niw3LjU5OTg0IDE4LjA0Mjk2NiwxMS4zOTY0OCA1LjM3NTcyLC0zLjA4NjEzIDEwLjc1MzM5LC02LjE2ODg2IDE2LjEzMDg2LC05LjI1MTk1IC0xNi41MzY1OCwtOS41NDkwOSAtMzMuMDc0NTg0LC0xOS4wOTU3MiAtNDkuNjExMzI2LC0yOC42NDQ1MjkgMCwxLjE1NDk0OSAwLDIuMzA5ODk5IDAsMy40NjQ4MzkgeiIgc3R5bGU9ImZpbGw6IzM3YTFmZjtmaWxsLW9wYWNpdHk6MTtmaWxsLXJ1bGU6ZXZlbm9kZDtzdHJva2U6bm9uZTtzdHJva2Utd2lkdGg6MC4zODAwMDk4MztzdHJva2UtbGluZWNhcDpidXR0O3N0cm9rZS1saW5lam9pbjptaXRlcjtzdHJva2UtbWl0ZXJsaW1pdDo0O3N0cm9rZS1kYXNoYXJyYXk6bm9uZTtzdHJva2Utb3BhY2l0eToxIi8+CiAgICAgIDxwYXRoIGlua3NjYXBlOmNvbm5lY3Rvci1jdXJ2YXR1cmU9IjAiIGlkPSJwYXRoNDMyOSIgZD0iTSA2NS41MTk1MzEsNy42ODc1IEMgMzAuOTUyMzQyLDcuMjI4ODgyMSAtMS43NTU5NTA0LDMyLjkyODIxNiAtOS4wOTg1NTcyLDY2Ljc3MDI5IGMgLTguOTQ0MTk0OCwzNC4zNjI1MyA5LjkxMDMyMjc0LDczLjE5MzE2IDQyLjQzMzEwMDIsODcuNDM5MTIgMzEuOTA1MzMsMTUuNTk1NSA3My42OTczNjcsNC44MzA2IDk0LjEyNTI5NywtMjQuMjEzMDMgQyAxNDkuMDc3MywxMDEuODIwODEgMTQ2Ljg0NTc5LDU4LjcyNDY0MiAxMjIuNDI4MDUsMzIuOTMzNTMxIDEwOC4xNzAxMiwxNi45MjIwNzIgODYuOTE1NTQyLDcuNjk1MTgzIDY1LjUxOTUzMSw3LjY4NzUgWiIgc3R5bGU9Im9wYWNpdHk6MTtmaWxsOm5vbmU7ZmlsbC1vcGFjaXR5OjE7c3Ryb2tlOm5vbmU7c3Ryb2tlLXdpZHRoOjMuNzAwMDAwMDU7c3Ryb2tlLWxpbmVjYXA6YnV0dDtzdHJva2UtbGluZWpvaW46bWl0ZXI7c3Ryb2tlLW1pdGVybGltaXQ6NDtzdHJva2UtZGFzaGFycmF5Om5vbmU7c3Ryb2tlLWRhc2hvZmZzZXQ6MDtzdHJva2Utb3BhY2l0eToxIi8+CiAgICAgIDxwYXRoIGlua3NjYXBlOmNvbm5lY3Rvci1jdXJ2YXR1cmU9IjAiIGlkPSJwYXRoNDk3OCIgZD0ibSAyMC4xMjY5NTYsNTUuOTg0Mzc0IC0yMS4zNjUyMzU0LC0xMi4zMzU5MzYgLTEuOGUtNiwxMi42MDM2NjUgMjEuMzY1MjM3Miw3LjY4MzQ5MiB6IiBzdHlsZT0iZmlsbDojMDA1YWE5O2ZpbGwtb3BhY2l0eToxO2ZpbGwtcnVsZTpldmVub2RkO3N0cm9rZTpub25lO3N0cm9rZS13aWR0aDowLjI2NDU4MzMycHg7c3Ryb2tlLWxpbmVjYXA6YnV0dDtzdHJva2UtbGluZWpvaW46bWl0ZXI7c3Ryb2tlLW9wYWNpdHk6MSIvPgogICAgICA8cGF0aCBzb2RpcG9kaTpub2RldHlwZXM9ImNjY2NjIiBzdHlsZT0iZmlsbDojMDA1YWE5O2ZpbGwtb3BhY2l0eToxO2ZpbGwtcnVsZTpldmVub2RkO3N0cm9rZTpub25lO3N0cm9rZS13aWR0aDowLjI2NDU4MzMycHg7c3Ryb2tlLWxpbmVjYXA6YnV0dDtzdHJva2UtbGluZWpvaW46bWl0ZXI7c3Ryb2tlLW9wYWNpdHk6MSIgZD0ibSA2Ny4wMzk1MzksMTM2LjE5NzIxIDcuMjYzMTk1LC00LjE0Mzk0IHYgMjQuNjA0OTMgbCAtMi4zMTI4NjQsMS4zNTMwOCB6IiBpZD0icGF0aDQ5ODAiIGlua3NjYXBlOmNvbm5lY3Rvci1jdXJ2YXR1cmU9IjAiLz4KICAgIDwvZz4KICA8L2c+Cjwvc3ZnPg==;" vertex="1" parent="70">
                    <mxGeometry x="10" y="10" width="60" height="60" as="geometry"/>
                </mxCell>
                <mxCell id="73" value="" style="verticalLabelPosition=bottom;verticalAlign=top;html=1;shape=mxgraph.basic.half_circle;rotation=-180;direction=south;flipH=1;fillColor=#f5f5f5;fontColor=#333333;strokeColor=#666666;" vertex="1" parent="70">
                    <mxGeometry x="70" y="50" width="10" height="20" as="geometry"/>
                </mxCell>
                <mxCell id="74" value="" style="shape=image;verticalLabelPosition=bottom;labelBackgroundColor=#ffffff;verticalAlign=top;aspect=fixed;imageAspect=0;image=data:image/jpeg,/9j/4AAQSkZJRgABAQEAYABgAAD/4QBaRXhpZgAATU0AKgAAAAgABQMBAAUAAAABAAAASgMDAAEAAAABAAAAAFEQAAEAAAABAQAAAFERAAQAAAABAAAOwlESAAQAAAABAAAOwgAAAAAAAYagAACxj//bAEMABAIDAwMCBAMDAwQEBAQFCQYFBQUFCwgIBgkNCw0NDQsMDA4QFBEODxMPDAwSGBITFRYXFxcOERkbGRYaFBYXFv/bAEMBBAQEBQUFCgYGChYPDA8WFhYWFhYWFhYWFhYWFhYWFhYWFhYWFhYWFhYWFhYWFhYWFhYWFhYWFhYWFhYWFhYWFv/AABEIAZQDAwMBIgACEQEDEQH/xAAdAAEAAgMBAQEBAAAAAAAAAAAAAQgCBwkGBQQD/8QAZBAAAQIEAwIGCgwJCAULAwUAAQACAwQFEQYHIQgxEkFRYXF1CRMYMjc4gZSz0hQVFyIzU1aRobGy0TZCUlVyc3SVtBYjNGKCosHwJCc1ktMlKENUY2WDk6PC4SZk8URFRlfj/8QAGwEBAAIDAQEAAAAAAAAAAAAAAAYHAQQFAwL/xAA8EQABAwICBgYIBgMBAQEBAAAAAQIDBBEFBhIhMTRxwRQWQVFhkRMyMzVTcoGxFSJSodHwIyThQkOC8f/aAAwDAQACEQMRAD8Av8iIgCIiAIiIAiIgCIiAIiIAiIgCIiAIiIAiIgCIiAIiIAiIgCIiAIiIAiIgCIiAIiIAiIgCIiAIiIAiIgCIiAIiIAiIgCIiAIiIAiIgCIiAIiIAiIgCIiAIiIAiIgCIiAIiIAiIgCIiAIiIAiIgCIiAIiIAiIgCIiAIiIAiIgCIiAIiIAiIgCIiAIiIAiIgCIiAIiIAiIgCIiAIiIAiIgCIiAIiIAiIgCIiAIiIAiIgCIiAIiIAiIgCIiAIiIAiIgCIiAIiIAiIgCIiAIiIAiIgCIiAIiIAiIgCIiAIiIAiIgCIiAIiIAiIgCIiAIiIAiIgCIiAIiIAiIgCIiAIiIAiIgCIiAIiIAiIgCIiAIiIAiIgCIiAIiIAiIgCIiAIiIAiIgCIiAIiIAiIgCIiAIiIAiIgCIiAIiIAiIgCIiAIiIAiIgCIiAIiIAiIgCIiAIiIAiIgCIiAIiIAiIgCIiAIiIAiIgCIiAIiIAiIgCIiAIiIAiIgCIiAIiIAiIgCIiAIiIAiIgCIiAIiIAiIgCIiAIiIAi+ZiWuU3D1EjVet1CDIyMvwe2zEdwaxnCcGi5PKXAdJXlPdpys+XtD88Z969GQyyJdjVXgeElTDEtpHIi+J75F4P3acq/l5Q/PGfeo92nKr5eUPzxn3r06JUfoXyU+OnU3xE8z3qLx2HM0cBV+tQKRRcXUqenpkntUtAmWue+zS42A13NcfIvX3O++i8XxvjWz0sp7RzRypdi3MkXzsRVmnUKjx6rV56BJSUs3hR5iO8NZDF7XJOg1IXk/dpysv+HtD88Z96+mQyyJdjVXgfMlRDEtnuRD3qLwfu05V/Lyh+eM+9R7tOVfy8ofnjPvXp0So/Qvkp59OpviJ5nvUXi6Jmvl5WKvApVMxjSJudmn9rgQIU01z4jt9gBrfReyB515PjfGtntVOJ6xzRypdjrmSL8Fdq0hRaTHqtVnIUpJSzC+NHjODWMaOMleR92nKv5eUPzxn3rMcMsiXY1V4GJaiGJbPciHvUXg/dpyr+XlD88Z96e7TlX8vKH54z716dEqP0L5KefTqb4ieZ7xF4qj5s5dVWqy9MpuM6RNTk1EEOBAhTTXPiOO4Bo1uvZtJNtV5PjezU9qoesc0ciXY65ki/FWqlKUmmR6lUpuFKycrDMSPGiuDWw2gXLiTuC8d7tWVny7ofnrPvWY4ZZNbGqpiWphiWz3Ih75F4L3acqvl5Q/PGJ7tOVXy8ofnjF6dEqP0L5KefTqb4ieZ71F4em5u5bz9SgSEnjWjxpiZiNhQYbZpvCiPcbBo5yTZe2B03ryfHJGtntVOJ6xzxypdjrmSL81Qm4MlIxZyajNhQIEMxIsR25jWi5J5rBeKGdWVh1/l5Q7HX+mM+9ZZFJJ6jVXgYlqIYrabkQ98i8H7tOVfy8ofnjPvT3acq/l5Q/PGfevTolR+hfJTz6dTfETzPeIvBe7TlV8vKH54xT7tOVfy8ofnjPvTolR+hfJR06m+Inme8ReD92nKv5eUPzxn3p7tOVfy8ofnjPvTolR+hfJR06m+Inme8ReD92nKv5eUPzxn3qPdpyq+XlD88Z96dEqP0L5KOnU3xE8z3qLwbc6MrHOAGPKHcn/rjB/iv30/M7LyedwZTG9AjH+pUoJP2lhaaZNrF8jKVlOux6eZ61F+WSqEnOQRGlJuDMQ3bnw3hzT5Qv78IkXBFl4qiptPdr2uTUtzNFBKErBm5KLG5tvXwca40wxhBkB+Jq7JUts0XCAZqMGdsLbF1r8lwsta562al1Pl8jWIrnLZD0CLwfu05V/Lyh+eM+9Pdpyr+XlD88Z969+iVH6F8lPDp1N8RPM94i8H7tOVfy8ofnjPvUe7TlV8vKH54xOiVH6F8lHTqb4ieZ71F4P3acq/l5Q/PGfenu05V/Lyh+eM+9OiVH6F8lHTqb4ieZ7xF4P3acq/l5Q/PGfeo92jKz5eUPztv3p0So/Qvko6dTfETzPeovBe7TlV8vKH54xPdpyq+XlD88YnRKj9C+Sjp1N8RPM96i8F7tOVXy8ofnjFPu05V/Lyh+eM+9OiVH6F8lHTqb4ieZ7xF4P3acq/l5Q/PGfenu05V/Lyh+eM+9OiVH6F8lHTqb4ieZ7xF4SVziyzmJmHLwccUaJEjPDGME025cTYAeUr3LSSL3Xk+KSNbPaqcT1jnilRVjci8DJFF+deMrua+XlGq8xS6njGkSk5KvMONAjTTWvhu32IPHqjI3yLZiXEk0cSXe6x7RF4P3acq/l5Q/PGfenu05V/Lyh+eM+9evRKj9C+Snl06m+Inme8ReC92nKr5eUPzxie7TlV8vKH54xOiVH6F8lHTqb4ieZ71F4P3acq/l5Q/PGfeo92nKr5eUPzxidEqP0L5KOnU3xE8z3qLwfu05V/LyheeN+9f2hZvZZRGgtx7h/XlqMIH69Fjo0/6F8lHTab9aeZ7ZF5qSzBwNN2MtjChxb/AJFRhH/3L7MjU5CchCJKzsvHadzoUVrgeixK81je3a1T1bPE7Y5PM/Yi/mIgNrOBWXC47/Svg9Eci7DJFFzbRRc210QXMkUaqQhkIiIAiIgCIiAIsb8hU3KxcxclF/Nz7W98PoXm8X5h4LwuHe32KaXIvaPg4syzth5gwHhE9AXoyN71s1LnxJNHGl3rbieoRaUxBtSZVU57mS0/UKkW/wDVJF1ieS8TgDy3tzry1S2xMMwyRIYRrEf8nt8WFCv8xd9F1ux4VWyerGpzpMbw+P1pU+/2LKIqqxdspwP83l6SP61YsfogFYjbLif/ANdj99f/AOC9/wABxH4f7p/Jr9ZMM+J+ylrEVX5DbGprj/p2B5+EOWBOsifW1q+/S9rrLyOQJylV+Sv+M+Whvb/deT9C85MHr2etGp6sx7DnbJULAotX4e2hMpasWth4ul5WI78SehPl7dJe0D6V7+iVyk1mW9kUmqSc7BO6JLRmxB84JWlLTzRe0aqfQ34aynm9m9F4KfRRYNfcaG/QsiSvG5s3JREQGpttvgnZlxHpvMp/FwVQYg3sFfnbc8WbEnTKfxcFUFG5TzKrU6K/V/65IVrnBVStYl//ADzUlLnlS+mijjUp0UIjpKbQ2MgO6Uw1bdwpn6ZaKugI00XP7Yz02lsND+tM/wANFXQK3Gq+zSn+43h/JZeT1VaJyr38kNZbYAHc4YpP/wBqz0rFz7sbb10G2wR/zb8U/srPSsXPjkXXyqiLTP8Am5IcXOKqlUyy9nMHmTiuml0sFKtFCHaSnu9mW3u/4SA4qk37Ll0Vb3oXOnZkA7oHCXWTfsuXRcDcFAM0oiVTbdxZGT1VaR9+811tXAdzziu+v/Jz/rC56W0uuhu1d4u+LOrnfWFzxB1XTyoiLTv1dv8AByc4qqVLNfYDv0Qc6kBQ7cpXZCG6SntNnUj3eMIjiFWg2+ddHGd4Fzi2c7e7zhLreD9a6OtA4I6FAs0onSm8Cx8nqq0r7954naPH+ojFvU0yP/Tcucrdw1XRvaQ8A+Leppj0ZXOQbtF0cponoX3TtOZnFypUR2XsFzfehJ5U1uhupbokL0lPT5KgNziwmW6EVuUN+ftrV0pZ3g6FzWyW8MWFOu5T0rV0pZ3jehQPNaIlQy3cWJk1yrTyX7zzubgHuX4iBAI9qZrf+qcuaMLg9obc62AXTDNzwXYi6pmvROXM6D8G3oC2sptRWyX8DUzmqo+OymSgpvUKZaKEG0lJ98mtkuFN9NViyDSUjVCiaFZ0UGkoPMpJI3lQ1NU0UGko3jVHAO74X6UGm9OlNFLa0COcmxT9NJqM/SpgR6XPzUlFG58tHdCd87SFs7Ae0Xmjhl7GRqy2tSo3waozhk8wigh9/KQtUWCkGwuP/las1DTzJaRqL9Dap8QqYFvG9ULv5PbTWDcWxoNOrt8O1OIQ1rZp4MvEcdwbF0AvyODfKVu5kUOF2OBGh051yyOo1W8dmLP6p4HnZfDuKpiNO4bikMhxH3fFp3Fdp3uhDjbb3u9u6xiWKZc0GrLTa0TsJpg+aVe5Iqrb3l3xqqu9krFqdhH9omvsw1ZmnTcvPScKblI7I0vHYHwokMhzXtIuCDxjUaqs3ZLP9mYR/aJr7MJcfBEtiMaKn9sd3MDkXC5FRf7cqhxo7dogsCg13qzrIVJpL3gblIJWIHKp0WdFBpKNEKi2uinXjTRQaS94O5DzIRYKFiyDSUyRpN1HEgPMlkGkpN9FjqpbrvTpWdFBpKBzoLoTdOhNFBpKfTwUB/LSjm2oqMvu/WtXTyD8E3oXMPBX4aUfrKX9I1dPYejB0KEZsRPSx28eRYOTFVY5FXwJd3pXOjaa8YLFvFepE/3Wrou7cudO06P+cDizrJ32WrXytvTtXYbGcFVKRlu88KoKi5U6Kf6KFbaS95NzZQb23p0KU0UGkpBvbepJKg3Qa700UGko4lHBBO4a7+fpU6blHGiog0l7yHtaSLsabcouv6S0aNLxA+BGiQnj8aG8tI8oUEqLXXysbF2oZSR6bFPUUDMfH9ELfavGlbgNbazDOviM0/quJH0LYOFdqLNKklrKhMU6swho4TcsIbz0Ohlvz2K0sNU3blqTYbSTevGnkbsOKVkPqSL5lxMBbXOFp5zJfFVEnqPENgY8D/SYI5zYB4HQ0reGC8YYYxfIezcN1ySqUEW4XseKC6HzObvaeYgFcyx3u4L9dDqlTotShVGj1CZkJuEbw48tFMN7ea44ubcuHV5XgfdYV0V80JDRZvqY7NnbpJ+51GDiVLlULJHarqcjEg0vMSX9nSveiqSkO0WHzxIbdHDnbY24irVYZrtLxDRperUWowJ6Smmh0KNBeHNcP8DxEHdu0KiNZh1RSOtK3V39ik3w/FaatbeJ2vu7T6iIU1Whc6VwiIsgIovovhZg4to2C8LTWIcQTrJWRlW++cdXPdxNaONx3AcayxrnuRrU1qfEkjY2q5y2RD6s1My8rLvmJmPDgwYTS6JEiODWsA3kk6Cy0Fm7tU4ZocSLT8GSoxBONJb7K4RZJtdzOF3RP7IsfylX/P7OnEuZdRiSxiRKdQGPPaKbDifCAHR0YjvnEcXejcAbcI6y4rnjUzwzLTVRH1Xb2EDxXNT1VY6TVbtPf5g505k4ye9tRxLMy0tE/wD0lOPseEByHgnhO/tErwJHCeXm5c43c4nVx5+VQT5elBu1UqhpYYEtE1E4ENmq5p3aUj1VQCeWym3079d6j8VStjia9xY8aWKxUhY1GBcJrdNFIOmqcDNxa3Fx3X96XPT1MmxNUydmZKO3URZaM6E/52kFfn6FKwrUVLKh9Ne5q3RdZefYZxBiTEuUUzP4kq8zU4zKpFgwI0y7hPENrIdhfeffF2pudVukFaZ2DpMy2ztTopH9Km5qL5O3OZ/7FuchVPiSNSrkRqWS5cuEq5aGNzlutiURFpnSNTbbnizYk6ZT+Lgqgo3aq/W254s2JOmU/i4KoLrwdVPsqbo/5uSFaZy35nyp91DRpdQN6k67kA1UoIgbQ2MvGWw1+lMfw0VdAlz92M/GWw1+lMfw0VdAlX2ad9b8vNSzcnbi75v4NabYPi34p/ZWelYufG7eug+2D4t+Kf2VnpWLnyRqF18qbs/5uSHDznvbPl5qQN6E66JcJqFKiHHu9mTxgcI9ZN+y5dF+Nc59mPxgcJdZN+y5dGONQDNW9N4cyycm7o/jyNd7V3i74s6ud9YXPFu9dDtq7xd8WdXO+sLniPpXTypu7+PJDkZz3lnDmHaFNLWKg6qSL6qV2Iae02cwPd6wj1tB+tdHGbh0LnHs5eHrCXW0H6yujjNw6FAs1b03hzLIydur+PI8VtIeAjF3U0x6MrnG3vV0c2kPAPi3qaY9GVzjb3vkXRyn7F/H+Dl5z3iPgTqn3oFKlpCz02S3hiwr13KelaulLe9b0Lmtkt4YcKddynpWrpVD1YOhQPNft2cCxcmbvJxPPZueC7EXVM16Jy5nQu8HQF0xzc8F2IuqZr0TlzNhX4DegfUtvKfqy8UNTOfrxcFM1DdSouVI0UxIKCh1OiDU6poFiwGiixWw8tclMe48w02vYbk5KNJOivhXjTYhuDmEA+9IXoe5hzc/NlN/eDVovxOjjcrXSIip4nRZhFdIxHsjVUU05xaKLlbfmNmXN+E27KHJxjyMqMP/ABsvM4jybzQobHRJ/BNULG3JfLQxMNAHL2suWWYlRvWySp5mH4VWs2xL5Hh9U1IWcZj4Ud0GNDdCiMcWuhvHBc08hB1UD32g0K3Uc1yIrVvc0XMc1bOSxj0KbBRoE1WT5JuCo5kG9OO6wZuWs7H9mTGjsj5cVWPw/Y7DM0lz3e+EO/v4PQ24c0chdxALPslv+zcIj/7ia+zDVccq8QxsJ5k0TEUJ5b7AnocSJY2vDJ4MQdHALlaHb8w1iPFNLwr/ACdoc/Vu0xph0X2HLuidrBYzgl1huNiodVU0dJjEcuxrrqTelq5KzBJYdrm28inltbKV673K8zPkFiL93v8AuT3K8zPkDiH93v8AuUm6dTfETzQiXQKr4a+R5Fx4lC9f7leZfyBxD+73/cnuVZl/ILEP7vf9yz06m+Inmg6BVfDXyPJXsLKHHiX2cU4TxNhpsF2IcPVGltmCRBM3LuhiJaxdwbjivqvjH/FbEcjJE0mLdDwkifG7RellHSlgjt6lfVjzI149ylPxehZS8OJGjMgwobokWK4MhsbqXOOgAHHe6xsS6mUaq7DE6qHbl6/3K8y9/wDIPEOv/d7/ALlByrzLP/8AAcQ/u9/3LW6dTfETzQ2koKr4a+R5FoCaW0XrvcszL+QOIv3fE+5BlVmXe/8AIHEXmD/uTp1N8RPNB0Cq+GvkfEwV+GlH6xl/SNXT1neDoXO7CWWOY0HFtKjRsCV+FDhT0B8R7pCJZrREBJOm7RdEIVwxoPENVDcz1EUskaxuvZF2fQnuUIJYY5Ekaqa02mR3LnRtPH/nBYs6yd9lq6LncudO06B3QWLOsXfZavnKu9O4c0PrOW5s+bkeDU2CCyC6n5Wo49EF004t6m+miAX01UDTevo4aw/W8Rzr5PD9InapMw4fbHwZSCYj2tuBwiBxa23L73uV5lkfgDiL93RPuWs+sp43aL3oimzHRzyN0mMVU8DyFggXrjlZmWBc4BxF+7on3L8M9gXG8iwvnMG1+ABvL6bGAH9230olZTOWyPTzMuoqlu1i+R54hT0rOPDiy8XtcxCfCifkxGlp+Yi6xNtx3gXXujkdsW54Oje31ksQLjoUpzfQizc+bEaXsUBCaXU2CyYB3b7r3OR+aWI8sMRCbpEZ0xT4zh7NpcR9oUwOMgfivtucBvtfhDReGUN1Fju5OJeE9OydiskS6KbFPUyU8iSRrZUOlmV2OKHj7CUviCgTPbIEX3sSG8WiQIg76G9vE4X1+cXBBXpQSVzt2dszqhlljqFUWGJFpE25sKqyjdREh30e0fltvdvKOE3juOg1GqMpVaVLVKnzMOYlZuE2LAiwzdsRjgCCOkKtcWwx1DNba1dha2CYs3EINepybT9yIi5R3D+MeKyFBdFiODGMBLi42AA4yfIqC7VWakzmTjuIyTjO/k/SojodOhNNmxzch0c8pdxcjecuvZnbgxlFwpkvMyUpG4E5XogkIRabOYxwJiOH9gEX4i4KigFlMcsUDXXqXps1IQPNuJuaqUsa8Q0m1uL6kNlHQjt6mnEgVw5CQg36oFkwDyJxr+0lLTE7Ow5KTlo0zMxjwYUGDDc97zyBoFyeLQLamDdm7NWvwmRolJlqRCiah1SmQx1uXgMDnDoIC1aitp6f2r0Q26egqahbRMVTUoQ6blZKn7HuJXNBncY0uCT3wgykSJboJLV+3uOZ75ey/wC6z/xVz1x7D0/+n7KdJMt4mv8A8/3Qq/YqTe9lZGe2PsSsYTJYxpkc8QiykSGD5QXLytf2Xc1qdwnSkrS6oG8UrOhpPkiBi9GY1QPWySJ9dX3PKTAcRYl1jVeGs0ulyvRYuwJjPC9ziDC1Up7GkgxYss4wv/MbdvzErzrrcDhDdY2XRZNHI3SYqLwOc+nljdZ7VTidCdkOW9ibOeFoZFi+UMW36b3P/wDctlHevI5EShkMmsLSh0MKjywPT2pt167iVSVbtKoe7xX7l0ULdGljb4ISiIvE2zU2254s+JP0pT+Lgqgrtyv1tueLNiTplP4uCqC62U9yruj/AJuSFaZx35nyp91DVKgab0B1UpIgbQ2NPGWw1+lMfw0VdAlz92M/GWw1+lM/w0VdAlX2ad9b8vNSzcn7i75uSGtdsHxb8U/srPSsXPdx3LoRtg+Lfin9lZ6Vi57nnXXypuz/AJuSHDznvbPl5qONNU/GS4UpuQ493sx+MDhLrNv2XLovxrnRsx+MDhLrNv2XLovxqA5q3pvDmWTk3dH8eRrvau8XfFnVzvrC54t3XXQ7au8XfFnVzvrC55DRdPKm7v48kOTnLeWcOZBCAqbKDv0UruQw9ps6eHrCPW8H610cZuHQucezp4ecI9bQfrXRxm4dCgWat6bw5lkZO3V/HkeK2kfAPi3qaY9GVzkb3p6F0b2kPAPi3qaY9GVzkbuIXRyp7CTj/BzM57xHwDUB0UnVQRbcpaQo9Pkr4YsKD/vuV9M1dKoXeDoXNXJbwxYV67lPStXSlhsxvQoHmv27OBYuTN3k4nn83PBdiLqma9E5czoXwbegfUumObfguxH1TNehcuZsK/Ab0Lbyn6svFDUzn7SLgpICnpTpTUhTC5BQdNyixU6lL86yC8HY/h/qChnefbKZ0/tBbx4lo7sfvgCZ1lM/WFvE96qmxPfZOJc+Dp/oRcBbRQ5ovqFmNyWC0UOkqIu08Rmrlfg3H9OdL4hpEKJHLbQp2EAyYhcnBib/ACG45lRjPbLeqZY44iUSfiGPKxmmLITobYTEO9teR43OHKQdxBPRzgjXRV77InR5aZymp9YLAJmn1NjYcTjDIrXNc3mBIYf7KkGA4lNFUtiVbtctrEYzFhUEtK6ZrURydpTLi1S+tkNkCscq0G4Tm4+RTfTVRxrFwH/Bkcy6ZZZTBn8uaDORRd8xS5aI8nnhNP8AiuZkT4Nx/qnyLpplfLOlMtqBKuuHQKXLQzflbCaP8FDc2amxfUnWTNb5fofe4I5AluYLKyWUM1k/shjYcgSw5AsrJZLqLIVX7JYAJPCFh/000fohKqhvporWdkt/oeEP1s39mEqpnmVk5duuHsTj9yp8zasTf9PsBqNUG7VOOyHnXcuR4lumhX0MJE/yspQvoahA9K0r5/Gv34Q/Cyk9YQPSNXnPridwPem9s1fE6fwwO1t0G5TYcimEP5tvQslT6qpeDLaKGNhyD5ksOQfMsrJZYup9WQwLGHXghZABTYIgRLbDE7lzq2nfGCxZ1k77LV0VO5c6tp3xgsWdYu+y1SfKu9O4c0IhnLdGfNyPBi104k4rp0KfXK1IsbqeK6lQLWWQb+7HSAc46tf8yv8ATQldIBvENVS/sc4Bzjq3UjvTQldK2qrXMXvB/wBC1crIi4ci27VIDWn8UKDDZ+SFnZRYLh6yRq1O4+XX8O0GuSxl6xRpGfhH8SZl2xR8zgVqHMTZfy7xBDiRqLCjYenHatfJu4cG/PCdcW/RLVvKwTghbENZUQLeN6p9TUqMPpahtpY0U55Zz5L4zy2e+Zqcs2epPCs2pyjS6E3kEQHWGem44gSVrw79OT7v/wA866kzkrKzkrEl5mDDjQorSyJDiNDmvadCCDvBVNdrjIluDe2YwwdLuNDe8unZJo4XsC50ez/sr30/F4tN0ywjMPp3JDUanL295Bcby10dizU+tqdhX42TjSyHepYQxQUduUrE6oDI7tw3citj2PnMN83SpvLypxy58g0zdLc93/Ql385Dv/VcQQORx5FU07l6PKXFEbBmZVGxNBeQ2Qm2mPY6ugn3sRvlY51uey5eL0aVVI5q7U1odjBa51JWMemztOmARfxk48OYlYUeC8PhxWBzHN3OBGhX9LlVaurUXAjkVEVCnXZG6w6YzEoVCEQ8CSpzpjg8josQt+qEq6XJ1W59vSK6JtCzDHE2hU2Wa3kt74/4rTA0CtDBY0Zh8SJ3fcqDHpFdiMqr2KRqE49U1TVdWxxiTvUsY9zmsY0ue4hrWjeSdwUHcvp4NmJeTxnR5ycI9jQKjAiRr7gxsVhJ+YLzlcrWKqdh7RNR0jWrsLz7M+UNIy6wlLx5iWhR8QTcJsSem3tu5jiB/NQz+Kxu7TfqTvAG1QLL+UEsfCa5puCBYtO8cWq/tYXVSVE0k0ivkW6l1UdPFBC1kSWQWHJ5UWSLxNoxDRfcoIWaiwWLA/nEhQokMtiMa9pFiHC9wtYZmZAZaYybFixaGylz0Qf0ymNEB9+VwA4DjzuaVtSwUcBt72F17RTyxLdjlRTXlpYZktI1FPxUGQh0uiydNhOc6HJwGQWOO8hrQ25+ZftTghTZeardbqezWo1ERAiIsH0am23PFmxJ0yn8XBVBdbK/W254s+JP0pT+Lgqgw1U9yruj/m5IVpnLfmfKn3Ug3JQBTfWwUcdlKLkQNobGfjL4a/Smf4aKugY4lz82M/GWwz+lMfw0VdAlX+ad9b8vNSzcn7i75uSGtdsHxb8U/srPSsXPdy6EbYPi34p/ZWelYufC6+VN2f8ANyQ4ec97Z8vNSBvSwUbipvpdSmxDj3ezH4wOEus2/Zcui/GudGzJ4wOEesm/Zcui/GoDmrem8OZZOTd0fx5Gu9q7xd8WdXO+sLniF0O2sNNnfFnVzvrC54hdPKm7v48kOTnLemcOYBTc5OhNb3KlRDD2mzp4ecI9bQfrXRxm4dC5x7Onh5wj1tB+tdHGbh0KB5q3pvDmWRk7dX8eR4raP8A+LOppj0ZXORu5dG9pDwEYt6mmPRlc5B3vkXRymv8Ahk4/wczOe8R8BreykaIoKlpCj0+S3hiwr13KelaulLe9b0Lmtkt4YsKddynpWrpSzvB0KBZr9uzhzLFyZu8nE8/m34LcR9UzXoXLmdD+Db0Lpjm54LsR9UzXoXLmdC7xvQPqW5lP1ZeKGpnT2kfBSXblKga70KmFiCjVOLVBruQ3PQlwXg7H74AmdZzP1hbx4lo/sfpHuAQ7fnKZ+sLeFzyKp8T32Tipc+Dr/oRcEMhuRY3NlBeBvctI6SuRNplflVc+yLVyBLZZ0mgB7TM1GpCKGcZhwmu4R8jnsW1M181cF5f098Wu1eCJrg3hyEBwiTMXk4MMG4B/KdZo4yFRTOzMGrZlY8jYhqTBAhNb2mSlWu4TZaCCbNvxkm5JNrkm1hYCQYDhss1SyZW/lTtIvmPFYYqZ8DXXcp5AiygaLK4UDUqxblXEWubpxqRdBofvWDNj62A6NFxFjekUGDfhVKfhQOhrngOPkBJ8i6bysJsGXhwmDgta0AAcVlTXsf8AgaJWMfzGNZqCfYVEY6FLOPexJh7bH/dYSf7bTxK53Gq/zNVJJVJG1dTfuWXlKjdDSrK5NbvsZIiKNkuCIiAqx2S3+hYQ/Wzf2YSqmeZWs7Jd/Q8IfrZv7MJVT3XVk5c93t+v3UqbM/vN/wBPsg1tcINAouVJ71dyxHiV+/CP4WUnrCB6Rq+fe4X0MJfhbSusIHpGrzl9k7gp70yf5m8UOoML4NvQsljC+Db0LJU+u0vBnqoERFg+wiIgMTuXOjaeJ7oLFnWTvstXRc7lzp2nQO6CxZ1i77LVJ8rb07hzQh+ct0Z83I8GikhLBT0rUBDYKVivoFgexzeGSrdSu9NCV0zvCpZ2OfwyVbqR3poSumd4Va5i393BPsWtlb3c3ioREXDJIEREBiN1l/CpSUrUKfHkZ2Xhx5eYhuhxYURt2xGkWII4wQV+kgFRYI3Utz5c26WU5zbQ+AYmXGaU7QWhxkIoEzTojtS6A42AJ43NcHNPLwb6XXh3Wurk9kNws2o5ayOKZeF/pNEmgyI4DUQI1mkH+2If0qmys7BKxaqkRztqalKhx6hSkrXMbsXWQClgjtAl12DigI4D50+5QsWPpFsdCNknELsR5A4em4kThxpWW9hxTfW8ImGCelrWnyrZQVcexw1V0xlzXKOXE+wamIrRyNiw2/4sKsc1VPicKRVkjE7F+5cuET+moY3+H2KR9kHkXS2ecvN8E8CcpEFwPKWviNP0cFaKGqtl2R/Dj41DoGLIULSTmHyUw4bw2IA5hPNdhHS4DjVTbFT/AAGZJKBnhqK2zFA6LEZL9usDdqouVJuotpddo4JPFopOosRcLG6m5WLJaxlFsty0ey3tGyNOo8phDMCO6A2WYIUlV33LDD/FZGO9pAIAfuItwiDcutHS6jJVKShzlPm4M1LRW8KHGgxA9jxyggkEeVcuhyr72Bsb4uwdNduwxiGepvCPCdChRbwnn+tDN2nyhRXEMtMmeskC2VdqdhMcLzXJA1I6hNJO/tOmnEiptgfa4xbTwyDiigyNXYNDGlXmXjEcpFi0noDVuDBO0/lhXA2FP1Caokw6w4FQlyGX/WM4TQOkhRiowWup/WjVeGsl9Lj+H1Hqvtx1G6UXzaBXqRW5MTdHqkpPy7t0WVjtiNPlbcL9/CPEuY5FbqcljrMex6XatzNFBJS+l7r5PslERZAREQGpttzxZsSdMp/FwVQVu5X623PFnxJ+lKfxcFUGU9yruj/m5IVpnLfmfKn3Ujcdya303Ib3uEBO5SixEDaGxl4y+Gv0pn+GiroEufuxn4y2Gv0pj+GiroEq/wA07635ealm5P3F3zfwa02wfFvxT+ys9Kxc+Cug+2D4t+Kf2VnpWLnw5dfKm7P+bkhw8572z5eag6jRQPp5EupdpuUqIce72Y/GBwl1k37Ll0X41zo2Y/GBwl1m37Ll0X41AM1b03hzLJybuj+PI15tYeLvizq531hc8QbrobtXeLvizq531hc8Rzrp5U3eTjyQ5Oct6Zw5g6HRL8RQa70cpXYhh7TZ08POEetoP1ro4zcOhc49nTw84R62g/WujjO9HQoFmrem8OZZGTt1fx5HitpDwD4t6nmPRlc5G96ujW0j4BsW9TTHoyucre9XRyn7F/H+DmZz3iPgCh1KalADdSy5Cj0+Svhiwn13KelaulMPvB0Lmtkr4Y8KddynpWrpSzvW9Cgea/bs4cyxcmL/AK7+J5/NzwXYj6pmvQuXM2F3rej/AAXTLNzwXYi6pmvROXM2FqxvQFuZT9WXihqZ09pHwUzUaKVBUxIKBZCbIN+qHULFge4wBm/mFgqgCiYarwk5ERXRRCMpCiHhO3nhOaSvt90bnDu/la393y/qLVguBa2ia2vcrTfh1I9yudGiqvghvMxOsY1GtkVETxNnzG0LnDGZwTjB7Ryw5KAP/Yvg13NfMqsQ3Q6hjetOY7eyFMmC0+RnBXjrFAjcOpGrdI08g7Eqx/rSu8zKI50SI6JEc573u4TnONyTym/GoP8AW16VFyhsQtxERqWRDUV6qt1UGyahBzr9tEpNUrU+JGjU2cqMySAIMpAdFeL6aht7ce/yr4e5rEu5bIGRueui1LqfiuvVZSYAr+YuL4VCocuQNHTc09p7XKQ72Ln854he5PJrbaeUeyzi2vR4U7jKKKBT7hzpdpESbiDksLtZ0kkjjarY5cYKw5gbDsOjYbpkOTlme+fwdXxXcb3u3udzno3KN4nmGGFqx066Tv2QleEZZnncklQ3Rb+5OWOEaTgfBcjhqjwuBLybLFzgOHGedXRHHjc51z/+AvReVSGt5EACgT3Oe5XO2qWTHG2NiMampCURFg+wiIgKs9ku/oeEP1s39mEqpFWs7Jd/QsIfrZv6oSqoVZOXfd7fr91KmzP7zf8AT7IYjeil2h0QLukeDdy+hhL8LaT1hA9I1fPC+hhH8LKT1hA9I1eU3s3cDYpvbN4odQYXwbehZLGF8G3oWSp9dpd7PVQIiLB9hERAYncudW074wWLOsXfZauip3LnVtO+MFizrF32WqT5V3p3DmhD85boz5uR4P8AGUrHjU6qfWK1JUC1kKhZBYHsc9vdkq3UjvTQldM7wqWdjnA92SrdSu9NCV0zvCrXMW/u4J9i1sq+7m8VCIi4ZJAiIgCIiA8XtAUdlcyWxNTHNuYtLjuYOV7Wl7T/ALzQucDTdoPKF1ExBLiZoU5Lu72LAew+UELl2BYFv5IsprlORdGRvAr7Okaekif33B1TiQ6b0Gu5TEgxKxUm6WCAs32NebLMQYqkb6RZeWigfouiC/8AeCtuFTbscL/9Z9fZxGksPzRQrkt5VWeYW2xB9vD7Fs5YW+Gs+v3PMZu4SlccZdVXDE3ZrZ+AWw4lvgogN2PHOHBp8i5xYjpNQoNenKNVpd0vOyEd8CPCPE5psbHjGlweMG66h8EWstB7X+SLscyhxVhiC0YhlYfBjQR70VCENzSdwiAbid496be9t74BiiUsvopF/K77mtmXCFq4kliT8zfsUqB0QFf1mpaPKzcWUmpeLBjQXmHEhRWFr2OBsQ4EaEHQjfdfyAtvVho5FS6bCsXMVq2XaCnzqTv3JZfVzFiBcKdALFR0KFixgyO/Uf8Ayo/GSxT8ZZTsQzftP2UKrVSiTzZ2j1Kbp8ww3EaUjOhOv0tIW5cttqPMCgOhy+IGS+I5Npse3AQZgDmitFj/AGmnpWj1ANz5FpVGHUtQipIxF8TepcTq6Zf8T1T7HQXJ/PPAuYJhykjUDIVN4/2dPAQ4rjp3hvwYg/RJPKAtlcLhDf8AMuWTCWxA9pLXA3DgbEHiN+VWH2btpSpUKZl8O4/mYk9SnWhwao4l8eVF7DtlrmIzdr3w174DSIYllx0LVkp1uidnaTbCc1JM5IqlLKvaXKRflp85BnZSHNS0dkWBGYIkOJDcHNe0i4II3gjjX6AbqKrdNRNGuRyXTYZIiIZNTbbnizYk6ZT+Lgqgutlfrbc8WbEnTKfxcFUGup7lXdH/ADckK0zlvzPlT7qLiygIU47KUkQNobGnjLYa/SmP4aKugS5+7GXjLYa/Smf4aKugSr7NO+t+XmpZuT9xd838GtdsHxb8U/srPSsXPjeug+2D4t+Kf2VnpWLnueZdfKm7P+bkhxM5b2z5eakWKnQKLlLa2UqIae82Y/GBwl1m37Ll0X41zo2Y/GBwn1m37Ll0X41AM1b03hzLJybuj+PI13tXeLvizq531hc8rarobtYabO+LOrnfWFzyBuunlTd38eSHJzlvTOHMIouE4lLCGHtNnPw84R62g/WujrO9HQucWzn4ecI9bQfrK6OM3DoUAzVvTeHMsjJ26v48jxW0j4B8W9TTHoyucgJ4K6N7SPgHxb1NMejK5yN3LpZU9hJx/g5mc94j4AFSDy71iBqnHdSshR6jJbwxYV67lPStXSlvet6FzWyV8MWFOu5T0rV0pZ3g6FBM1+3Zw5li5MT/AF5OJ5/NzwXYi6pmvROXM2DpDb0D6l0yzc8F2IuqZr0TlzOhW4A6AtzKfqy8UNTOfrxcFJuU0IUKbe9UxIKQVLdygjVT0ICVAOuqF7AbEgHXjUBzTxg6cWv1L5029qn2kbl2ISSoU6a83Nu6VLQDxLKLc+bW2mKnS6O0CdCyYAsXWK9/lJnHjfLx8KBRqhCmaYxxLqbNww6EbnUNI98wknQgm3GCF4HjS54zxLXnginYscqXQ2IKmSB6PjdZTolkRmlQs0cMOqNMDpeclrMnpGI68SXeRy8bTY2duNuUEL3xaCN1+lc38icdTmXWZcjiGC93sUOECoQgfhZdxHDHS2wcOdq6M0+bgzknBmpeK2LCjsESG9puHtIuCOYjVVzjOGrRT2b6i7C0sAxXp8H5/XTafpREXHJAEREAREQFWOyXf0LCP62b+qEqpu3q1nZLv6HhD9bN/ZhKqZ75WTlz3e36/dSpsz+83/T7IDe6hTfX7lFtdV3SPEhfQwj+FlJ6wgekavn6XsvoYQ0xdSQfzhA9I1eU/s3cDYpvbN4odQYXwbehZLGF8G3oWSp9dpd7PVQIiLB9hERAYncudW074wWLOsXfZauip3LnVtO+MFizrF32WqT5V3p3DmhD85boz5uR4M79EG/VBYdKKflag67ksE1RuoQFgOxzH/XJV+pHemhK6Z3hUr7HMP8AXJVupXemhK6h3hVrmLf3cE+xa2VfdzeKhERcMkgREQBERAfhxFHErQpyZda0KXe835A0lcugeFry66Lo9tB1cULJTFFSc+xh0uO2Gf67mFjf7zgucLNAG8gsprlNi6EjuCFfZzkRZI29qaxxqFI3popiQYFBe6dKlAWK7G/DLsyMQxgNGUtjb8nCig2/u/QrjjcqpdjUkf5/FlRcNLS0Bptv+Fcf8PnVrRdVlj7r4g/6fYtrLTbYaz6/cFRwWm4tv3rJFxbHfsanz6yKwnmUx08W+1dcDOCyoy7AS/kbFbueBuFyCBoDZVDzZycx5l9FiRKvSHzVPZfg1GSBiwSOV3HD/tAcmu9dE+CORYvhQ3tLXMBBFiDuXaw/G6mjs2+k3uXkcHEsvUtbd1tF3ehywBDgLa31FuPyqCbq/mZGz5lpi5z5h9G9q51+pmqY4QHE8pYAWE85bdaNx7skYpkS+NhSuSdWhDdAm2+x43QCLtcenghSykzJRzeuuipC6zLFbAt2JpJ4FdlBC9LjXL7G2EHO/lHhioyMNhIMw6Dw4P8A5jbs/vLzQuQCNb6+RdyOeOVLxrfgR6WnliW0jVQX0uml0GvEltV67Np4gFQpsEsEAvyI43Oup59eZO9UrFjN9dyyGwtmzGplZh5dV2ZL5GcJ9qIsR3wEXUmDf8l29o4naC/CVwGOBauWUpHjyk3Cm5WK6FHl3tiwYjDZzHtILXDnBFxyFdI8mMVsxplfRcTNDQ+flWujNbuZFHvYg8jw4eRQHMmHthmbPGlkdt4lk5VxN08S08i627D1iIijBMDU+274s+I+mU/i4KoJ+Kr97bniz4k/SlP4uCqCaWU9yruj/m5IVpnLfmfKn3UhSdDolggsOlSkiBtDYy8ZbDX6cz/DRV0DHEufmxl4y2Gv05n+GiroGOJV9mnfW/LzUszJ+4u+b+DWm2D4t+Kf2VnpWLnvrbRdCNsHxb8U/srPSsXPjcQF18qbs/5uSHFzlvbPl5qQU1TS9kN1KbkNPd7MfjA4S6zb9ly6L8a50bMfjBYS6yb9ly6L8agOat6bw5lk5N3R/Hka82sPF3xZ1c76wueG/cuh21d4u+LOrnfWFzxbuXTypu8nHkhyc5b0zhzItpdFJ3aJYKV3IYe02dPDzhHraD9a6OM3DoXOPZ08POEetoP1ro4zcOhQLNW9N4cyyMnbq/jyPFbSPgHxb1NMejK5yttZdGtpDwD4t6nmPRlc4x3q6OVPYycf4OZnPeI+BkDoo3HVN6jeVKyFHqMlfDDhTruU9K1dKYfeDoXNbJbwxYU67lPStXSlnet6FBM1+3Zw5li5M3d/E8/m54LsRdUzXonLmdBH823oC6Y5ueC3EXVM16Jy5nQ/g29A+pbeU/Vl4oamc/Xi4KFLtAgsjlMiCgG6hTqE6UBcrYYwrhusZHQ5yrUCmT0f2wmG9tmZOHEdYEWF3Albfj5c4BjttFwZQHjnpkH1VrfsfvgChji9s5n7QW8BuVVYlLI2skRHLtLgwmmhdQxKrU2GqMbbO2VmIZdwh4dh0qO4e9mKY4wHMPM0e8PlaVVDaByZxDlbUGRozzUaLMv4EtUIbLcF2tocVv4jufc7isQQug3B1uRuXxsdYcpOK8KztArUsJiSnoLoUVp3i/G08TgQCDxEBbGHYzU00iaTrt7UU8MUwClqol0G2d3nMg6qONegzQwpUMD49qeF6kOFFkIxbDiWsI0I++hxB+k0jTluOJef49NVZMUrZGI9uxSq5YXxPVjk1oONQnGp0X0eRN7i3kV5thfGP8pclpelzEXhzmHopkolzdxhd9CP+6eD/ZKowFuzYRxd/J7OYUePF4MpiKX9jm50Edl3wzfiuOG3pcFw8wUvp6JV7W60JFlus6PXIi7HalLzosQVN9FWxbBKIiyAiIgKs9ku/oeEP1s39mEqpfjK1nZLf6HhD9bN/VCVVLaqycu+72/X7qVNmf3m/wCn2QxO9S7climi7lyPAbl9DCOuLaTf84QPSNXz+Oy+hhH8LqT+3wPSNXnP7JeBsU3tm8UOoML4NvQsljC+Db0LJU+u0u9nqoERFg+wiIgMTuXOrad8YLFnWLvstXRU7lzq2nfGCxZ1i77LVJ8q707hzQh+ct0Z83I8FbVTrfVNVNxZT8rUjoQaGyi+ikb0BYDsc/hkq3UjvTQldM7wqWdjm8MlW6ld6aErpneFWuYt/dwT7FrZW93N4qERFwySBERAEUX03r8lUn5enU+PPTsxDgS0tDdFjRYhAbDY0XLieIABZRFVbIfKuREupX/sh2K207LeQwnBi/6RWpsRIrQde0QrE/O8w/mKpxfRe52hsexcxs0J7EAL2yDAJenQ3aFkuwmxI4i8kv8A7XB/FXh/xrcSs7BKNaWjajtq6/qVFj1clXWuemxNScCG71CysoK61ziAak3QqUs4kNa0uc7RoG8nmRy2S6n01quVEQur2PKjukcl5iqPZZ9VqcWI135TGBsMf3mvW/Ny8lkjhs4SynoOHi3gxZGRhtjj/tSOE8/7xcvWqpK+b01U9/epdOGw+hpI4+5CUUcWicWpWqb5KIiAxDRuU2HIpRY1mLH84sOHEaQ9gcCLEEb1rbMLIjLPF4iRZzDcCRm4mpm6d/o8ThflHgjguPO4FbNso4IC9op5Yl0o3Ki+B4TUsM6aMjUVOBSjN/ZbxVhyFFqOEpr+UEizUy5YIc2wczd0TyWPI0rQ8SG+HFfCiMdDiQ3Fr2PaQ5rgbEEbwQQRY7jvXU3gttxW3Kte3ZlTIzmGo2YlGlWQalTy32yENthNQSQ3hn+uz3uv5N796LSzCMwyOkSGo137SF41lmNkaz02q3YVEuFBOuihSLWupqmy5ArB25Nb6IdejlTWyxcwSAVc3sdVVfN5SVKlxHFxptVf2sX71kSGx+n9rhqmQJ+dWo7GlFcYWMYFzwGOkngc57eD9kLgZkjR2HuVexUJJlaVW4k1O9FLVIiKuS1jU2254s2JOmU/i4KoNYaq/O254s2JOmU/i4KoMp7lXdH/ADckK0zlvzPlT7qQUI98nEl7nRSi5EDaGxl4y2Gv05n+GiroGOJc/NjPxlsNfpTH8NFXQJV/mnfW/LzUszJ+4u+b+DWu2D4t+Kf2VnpWLnud110I2wfFvxT+ys9Kxc+F18qbs/5uSHFzlvbPl5qQLIU406VKbENPdbMfjBYS6yb9ly6Mca5z7MfjBYR6yb9ly6McagOat6bw5lk5N3R/Hka72rvF3xZ1c76wueIXQ7au8XfFnVzvrC5479y6eVN3fx5IcnOW9M4cw1ONNU+tSuxDD2mzn4eMI9bwfrXRxm4dC5x7Onh4wj1tB+tdHGd6OhQLNW9N4cyyMnbq/jyPFbSHgHxb1PMejK5xt3Lo5tIeAfFvU0x6MrnI3vV0cp+xk4nMznvEfADTegClQL31UrIUenyW8MeFeu5T0rV0pb3rehc1slvDFhU/99ynpWrpS3vW9Cgua/bs4FiZM3eTih5/NvwW4i6pmvROXM2H3rRzf4Lplm34LcR9UzXoXLmbD7xvQtrKfqycUNXOftIuCmXSh13JxapxKZEFDtAmpQ3KFAXh7H74A4fWUz9oLeH4q0d2P3wBQ+s5n7QW8fxVU2J77LxUujB9wi4IZLHggblkNyWWkdIq92RTBXb6PTMeScH+ckniRnyBvhPJMNx5g8kdMQciqbvcul2auGYGL8u6xhyO0cGoyb4TXH8R9rsd5HAHyLmrNQI0rNxZWYhOhx5d7ocVjt7XNJDm9IIIPOCp7liqWWnWFy+r9is82UKRVKTN2O+5/M7lGnIinpUosREaWX6aXPTdLqkrU5GIYU1JR2R4DxvY9hDmm/FqAvz2UAkN0Kw5qOarV2Kh6MerHI5Ow6Z5aYjlsW4DpWJJS3a6lKQ4/BBvwHFo4TelpuOkFfeB01Vb+x2Yu9n4IqeDpiJeNR5nt8uCdTBikkgdDw7/AHwrIcdlUtfTLT1Lou5f2Lmw2qSqpGSou1P3MkRFqnQCIiAqx2S7+hYQ/Wzf2YSqpxq1fZLv6FhD9bN/ZhKqZVk5d93t+v3UqbM/vN/0+yAo3Xeoup49V3LEeHOvoYS/C2ldYQPSNXzze9l9DCX4XUrrCB6Rq85/ZLwNim9s3ih1BhfBt6FksYXwbehZKn12l3s9VAiIsH2EREBidy507Tp/5wWLesnfZauix3LnTtO+MFi3rF32WqT5V3p3DmhD85boz5uR4ToQ2Tj0SwU+uVqAh0OiN13qVkG/+xz+GSrdSO9NCV0zvCpX2O1zW5xVY3AHtI63/nQldERG3vwgq1zFv7reBauVlRMOair2maLDht/KCgxG21ePnXEspI9Nvef0ReexJjbCmH4JiVvElLkABf8A0ibYwnoBNz9K1LmHtWYDo0OJBw5Cm8QzTQQ0wmGBAB54jxe36LXLZgoqmdbRsVTTqMSpKdLySIhvCozktIScWbnZiFLwIDDEiRYrg1rGjUkk6ABU02uM9xjUvwlhKNEZQIby2bnAeD7YOB70f9kDy6uI3WAv4DOPOHG2Y8Ywq3PNlaaH8KHTJS7IA5C7W8R3O49AC8F91v8A4UwwjL6QuSWo1u7EINjWZVqGrBT6mrtXtA70kFR+MjeNHKWbCG3GqapcpxL5MErZmyRgt2Nc66bDiweHIUlzahOOtpaGQWM/tROCCOMB3IVrQX196SeQano/z9Oivjsd5avwBlmyYqUEw61Wi2ZnWuGsJtjwIX9lpJPO5y4uO16U1Loov5nakJDl7D1q6xFVPyt1qbdaANB9am6mwSw5FWqlsIhje3GgcTpyca+Rj2eNMwVV6iHFpk5CNGuDu4MMu/wVOMo9qDG+GYUGTxK1uJZFgt2yNE7XNQxzRLHh/wBoXP5QW/R4bPVxudCl9E5ddi1PRStZMttIvCi1Pl7tD5Z4rEOF7eNpE5E09i1QCAQeQOJ4DvI662fLTcGagMjyseHGhvbdrmOBDucEb1rS08sS2kaqG5BWQTpeJyKfpRYcIncstV4GzclFF1BcVm4C8lnmZZuTmKTNgdq9ppoPv+pd969U94HGB0qsO3BnHS4tBj5d4anYU5MzTg2qx4LuEyXY0g9pBG97ja9u9AIOpAW7h9NJUVLGMTtQ5uK1cVNSPc9ewqc2/BF99tVPFqhBvcI5WwmpLFMKt1uOhCguCnSljBO4K2XY1ZNzKFiuoEWbGmpeCDzsa9x9IFU0g2V49gehvpWQ0Geis4LqxPRpsaa8HSE0+UQ7+VR7M0ujQ6K9qknypCr8QRydlzd6IirstM1NtueLNiTplP4uCqC9Cv1tueLPiT9KU/i4KoKNBqp7lXdH/NyQrTOW/M+VPuo1snQn+Cgb1KLEQNo7GfjLYa/Smf4aKugS5+7GfjL4a/Smf4aKugSr/NO+t+XmpZuTtxd838GtdsHxb8U/srPSsXPcroRtg+Lfin9lZ6Vi57uXXypuz/m5IcPOe9s+Xmo1umhS4TiUqIce72Y/GBwl1k37Ll0X41zo2Y/GBwl1m37Ll0X41AM1b03hzLJybuj+PI13tX+Lvizq531hc8houhu1h4u+LOrnfWFzyXTypu7+PJDkZz3lnDmR0o7Q6IdQjVLCGns9nPw84R63g/WujzO9HQucOzn4ecJdbwfrXR1m4dCgGat6bw5lkZO3V3HkeK2kfAPi3qaY9GVzkG4ro3tIeAfFvU0x6MrnI3vV0sqewk4/wczOe8R8AFJUbkFgpZYhR6fJfww4U67lPStXSlvet6FzWyV8MeFOu5T0rV0pZ3g6FA81+3Zw5li5MT/Xk4nn82/BbiPqma9C5czYfeNtyD6l0yzc8F2I+qZr0LlzOhaMb0D6luZT9WXihqZ09pHwUnpQoddyhTEgouVPElgg73VAXg7H74AofWcz9YW8fxVo/sfvgDh9ZTP2gt4fiqpsT32Xipc+D7hFwQyG5EG5FpHTMSBbVUC2yMMfyYz6q3a4XBlquG1GABu9/o+3/iB/zq/ttVWvsjOF/ZWDqPi2BC/nKZNGWmHW/wCiijQnoe1oHO9dvL1V6GuanY7URzM9J6egVybW60KgqTayOSwI0VllUErFZKLBYuDZOyZi3+SGedHm40TgSlRd7XTWunBikBh8j+ATyAFdBmuuA4brArli0uY5sRri17TdjgbFp5Quj2QuLG42ymomIXOBjzEq1s0Bb3sZh4EQf7zXKD5qpbSNnTt1KWDk+tu19OvZrQ9oiIokTkIiICrHZLv6HhD9bN/VCVUzdWs7Jd/Q8IfrZv7MJVTKsnLnu9v1+6lTZn95v+n2QWCkhY3Kyvpqu6R4Hev34Sv/ACtpPWED0jV88b9V9HCf4W0nrCB6Rq8pvZO4HvTL/mbxQ6gQvg29CyWML4NvQslT67S8GeqgREWD7CIiAxO5c6Np7xgsW9ZO+y1dFzuXOnadA7oLFnWLvstUnyrvTuHNCH5y3RnzcjwguDdCmtkNlPStSDqpbrvUKbhfQP20asVajTTpmj1Sdp8d7eC6LKTL4T3N00JaQSNAvp/y7xx8tMQ/vWP6y+Bx3UHTevF8MT1u5qKp7sqJWIiMcqH3zjvHJFv5Z4h/esf1l+Kcr+IJ0WnK9VJj9bOxHfW5fNGu5BdEpoU/8ofS1U6/+1MrNLi52riblx1N+W/KoGjrDW25QN6N3r0a1E1IljxV7l2rcnXlQElQFK+j5uQNEcpsTuQjiKxdDBDVkbeQ8/8An5+JRoBckcvkVhtmTZ0n8Qx5bFGO5aJJ0hpbElqdEBbGnNbgxBvZD5u+dxgDfpV1dFSR6ci/TtN+gw6etl0I0/g/rsTZMxa5VZXH+JZQtpknE7ZSpaKP6VFadIxB/EYdW8rhfcBwriNaBoAsJSVl5WWhy8vCbChQmhkNjBwWsAFgABuC/rYKtMQrpK2ZZH/TwLZwzDY6CBI2be3xJREWkdI8DtNzvtdkHiyYDy0+1UaEDzxGln/uXOsXtbiur5bcs6JPZzrMMGxm4kvAAPHeMwn6AVQwCwU8yoy1M9y9q/YrbOEl6tje5CCAd4HQvr4ZxRiTDsXtlAr1Tpp4xKTT4bT0tBsfKvknVNQpNJEyRFR6XQibJnssrFVDbFB2js3KU1rXYigz7Gm/BnZSG645OE0Nd9K9RI7XOYEKGBNUOgxyN7msisJ/vlV/B1QaDcFz5MHoJNsaHRjxuvj2SqWP7sHFdvwQpPnURfgqW1xj+Owtk6FQ5W+5zmxYhHk4QVf7+9UryTAsPRfZnq7MOIuT2h7zHudGZeLoL5aq4omIcrE0dKyTRLscOQ8D3zhzOJXg9AAALAbhxJfUgkm/KUuulDTQwJaNqIhzZ6uad15HKoB0UCyW00TTkXtc1he+nzIbkqdybmX4reTypdDKIqn0cIUSdxLiiQw/TGF03UplkCDpo3hEDhHmAuTza8S6V4Oo0rh7CtOoUiLS9OlYcvCHM1oaCemyrzsI5URqTLHMSvyjmTc5C7XSYMRtnQoJ76MQdxeLBu73l9/CVmraaqu8xYglTUJGxbo37ln5XwxaaBZXp+Z32MkRFHiVGpttzxZsSdMp/FwVQXer97bniy4j/SlP4uCqCDvVPcqbo/5uSFaZy35nyp91B3qbBQd6m6lJEDZ+xn4yuGv0pn+GiroEuc2znialYNzmo2JK1EiQ5CRMbtz4UJ0RzeHBexug1OrhxcateNqbKa2tRqP7vifcoNmOjqJqtHRsVUtYsLKtdTQUjmSvRFvc+/tg+Lfin9lZ6Vi58OVtNoXaAy7xfk7W8O0adnXzs/LtZAbFknsaSHtNi42HEVUxwIF11MtQyQ072yNVFvf9jkZrqYaipY6JyKlrECyN13oAh1CktyKWPd7MfjA4S6zb9ly6L8a5r5K1yn4ZzZoGIKo97JKnzgjR3MYXFreC4bgDferet2pspgNajUb9XxPuUIzJR1E1Q10bFVLcyf5VrqaCmc2V6It7nqNrDxd8WdXO+sLnhx6K3WfG0JlzirKOvYfpU9PPnKhJugwGxJGIxrnG2hcRbiVRrEC9l0ctQSwwPSRttf8ABzM11MM9Qx0TkVLWI4tE1uo6FJuFJiKWPZ7OY/19YS63g/WV0dZuHQuamUFZkMOZpUCv1J7mSVOn4ceYcxvCLWjfYC91cJu1LlNwQPbGo3H/AHfE+5QrMlJUTVLXRsVUtzJ7lWupoKZzZXoi3PabSHgHxb1NMejK5yM73yK4WcW0VlriTK6vUGm1CfdN1GmxpeA18hEYC9zCGgkgAXNhvVPSOCFvZZp5YYXpI1U19v0OdmyqhqJ2LE6+oOTpTW+ifVyqTkSPT5K+GPCfXcp6Vq6Uw+8HQuZeW1TlKLmJQazPlzZWn1KXmY7mDhlrGxGlxDRvsBeyuUzalynDBeo1G4H5vifcoVmalnmnYsbVXUT3KdZTwQPSV6JrNlZueC7EfVM16Fy5nQ+9b0D6ldHHu0rlfV8E1elydQnzHnZCPAhB0hEHCc6G5o1tzqlzGkMbfQgLayxTTQtk9I1UvY1M2VcFQ+NYnotiRpvUAaqRrvS/vlKyG2IuVI1Q2sm5DNi8HY/PAEzrOZ+0FvHiVSNk/O3AmX+VLKDiGcm4U6JyNGc2FKPiNDXOu03FxryXWzu6lymvrUajbq+J9yrLEcPqnVcjkjWyqvYWvhWKUcdFG18iIqJ3m6xuRaV7qbKb841H93RPuTupspvzhUf3dE+5af4bWfDXyOh+MUHxU8zdP4q8pnVhlmMMrq5h5wBfOyb2weaKBwoZ8jw0+ReA7qbKXd7Y1H93RPuUO2pMpHNINQqO783xPuX3Hh9ax6PSNbovceU2KYfJGrFlbZU7yjJa9ryyI0te02c072kbx5CoGgXpc3Zug1HMytVPDMWJEpU9NOmZcxILobm8P3z2kHke5wHNZebdzBWhA9z42vVLKpUk7Gslc1F1EXKm+uig70AXrY8LEgkaFWn7HJi33lbwTMRNWubUJME8RsyKBzX7Wf7RKqwdTdeuyLxgcCZr0bEr+H7Glo3AnAxvCLoDwWv97x2B4QHK0LmYvS9JpHsRLrtTidbBazotax66k7TpIi0oNqbKa2tRqP7uifcp7qbKb841H93RPuVd/htZ8NfItD8YoPip5m6kWle6mym/ONR/d0T7k7qbKb841H93xPuWPw2s+GvkZ/GKD4qeZ4Lslv8AQ8IfrZv6oSqmbLe22bmphPMuBQGYXmZmKadEmDMCNLOhcEPDOCRwrX1aVoqysDAYnxULWvSy6/uVnmGeKbEHvjddNRjbXVSdSlzZDpuXZOGBqNV9DCf4W0nrCB6Rq+edDov2UGYgyeIJCcjktgy81CixCBchrXtJsOMgDcvKZF9G5O9D2g1StVe9DqLC+Db0LJaTZtTZTBgHtjUd35uifcp7qbKb841H93xPuVWLhtZ8NfIuBuL0CNt6VPM3Wi0r3U2U35xqP7uifcndTZTfnCo/u6J9yfhtZ8JfI+vxig+KnmbqRaV7qbKb841H93RPuTupspvzhUf3dE+5Pw2s+GvkPxig+KnmboO5c6tp3xgsWdYu+y1WsdtS5TFulRqN+r4n3KoOdVdp+J82a9iGlve+SqM2Y0Bz28BxbwWi5B3blIct0dRDUudIxURU5kXzVXU1RStbE9FW9zyu4apYIdQhU2sV/Yi3LopsFFyp15VkzYEqN5U9KaLFjFiVAKm+mijiWRYaWuguE0teyX5UAFkvrZAATa+/lXsMI0HL6OxkbEuP48mDq6XkKNGjPI5OG6zR8xXnJIkbdJUVeCXPaKB0jrIqJx1Hkb214gATcbgvZ5W5U46x/MM9oKLEEo51nVCavDlmjlDyPfdDQT0LbeXdd2WcKxIcz7HqNWm4Zu2ZqkhEj2PKGcEMB5w262rC2oMoYUMQ4U9PsY0WDRTYgAHRZR6sxesto08K371QktDg9H61TOlu5F5jIrZywtgaPBq1YLa7W4VntjR2Wgy7uIw4Z3EcTnXPJwVutoA3Cy0t3UeUn/X6j0e10T7lPdS5S/nCo/u6J9yiVRTYjUPV8rHKvAmdLWYVSsRkUjUTibrRaV7qbKb841H93RPuTupspvzjUf3dE+5eH4bWfDXyNr8YoPip5m6kWle6mym/ONR/d0T7k7qbKb841H93RPuT8NrPhr5D8YoPip5nxeyLTog5P02SB1mqxD0vxNhxHfcqYOOisDti5q4PzLoNHgYaqsUvpsw+LFgzEpEhmJwmgDgki2mt7keVV/NiNRZTzL8D4aJEellVVK4zLO2evVzFuliNeRRcqeJDa67pHrA6Jog1TivZYsBqnQpUa30SwsQimwUW11WTNiQeZAl+VfTwtI0ieqrYNbroo8oBd8cSj5hx5msZqT0kDnXm52ilz6ZGr3aJ85rXRIgaxjnOeQGNA3kmwHPfit0c6szsvbOU1MzstizMSTMGXhWiSdHjD30U7+HHHE0bxD4/xtBwThkzi/Zwy8eydk41SqNWaNajN0174jDx8AWtDvzDhcpK2f3UeUlhaoVHT/u6J9yimKYhXyoscETkRdq21qTPB8Ow+FUlqZWqqdlzdEKGyGwMY0BoFgBussuPmWo8N7SGWVcxFI0WQn5901UZhktAa6QiAF7nBrQTbQEnetuAgi91DZoJYltI2yqTynqIJ2/4XIqJ3GSIi8jYNT7bd+5lxHbllP4uCqCA6Wt9K6Y5nYTpmOcEzmGK0Y/sGe7X232PE4D/AHkRsQWcf6zB5Fqk7J+WHFFrvn49VSfA8YgooHMlvdVuQ7MOB1NfUtkitZEsUkPQouP8lXd7k3K742uefD1E7k3K/wCOrvn49VdnrTReJweqNf4eZSQ6j7woB6PnV3O5Nyv+Ornnw9RO5Nyv+Orvn49REzTRJ2KZ6o1/ehSQCx4QIB5QnlHzq7fcm5X/AB1c8+HqJ3JuV/x1d8+HqLPWqi7lMdUa/vQpHp/kpcW3/Srudyblf8fXfPx6qdyblf8AHV3z8eqnWmh7l/v1HVGv8PMpLY7/AKVB1P8A8q7fcm5X/HVzz4eoncnZYfH1zz8eosJmmh7lHVHEO9CkgB3iwNrXG9NeVXb7k3K/46uefD1E7k3K/wCOrnnw9ROtNF3L5f8ATPVGv70KRi3+Slxberudyblf8dXfPx6qdyblf8dXfPx6iz1pofEx1Qr/AA8ykgJ013buZQdDe4+dXc7kzK742uefD1FHcnZX/G13z8eosdaaHuUz1Rr+9CkpBGoFjx241Gt7FW4za2a8vMNZZV6v081gzdNp0aZg9snOE3hMYSLjg6i4VR+K66tBiUVc1XR31d5xsSwyagejJe0N71Ag0/wS/Muicwni6ORQfJ86+1lzS5auZg0OjTvD9i1GpwJaMYbuC7gPiBpsbHWxuFcBmyhli5gPba7r/wDfj1Fya/F4KJ6Mkvr7u47OHYNUV7VdEqaikuvN0KdbXV2xsm5X/G1zz4eoncm5X/HVzz4eotBc00Xj5f8ATpdUa/vQpGNyXF9/0q7ncm5XfG1zz4eoncm5X/HV3z8eqnWmh8THVGv8PMpHpyFLjkKu53JuV/x1c8+HqJ3JuV/x1c8+HqLHWmh8f79TPVGv8PMpKNRqVifL8yu53JuV/wAdXPPh6idyZld8bXPPh6iz1qovH+/Uz1Sr+9CknGlnK7Xcm5X/ABlc8+Hqqe5Nyv8Ajq558PUWOtNF4/36nz1RxHvQpJf/ADdFdvuTssPj675+PUUdyZld8bXPPh6idaaLx/v1M9UcQ70KSjQ3try2TyfQrt9yblf8dXPPh6idyblh8bW/Px6qz1por7F8v+jqjX+HmUjuP8lLj/JV3O5Nyw+Ornn49VO5Oyw+Prvn49ROtNF4jqjX+HmUkPQU8n0K7fcm5X/HVzz4eoncm5X/AB1c8+HqJ1pou5fL/o6o1/h5lJNSgFldvuTcr/jq558PUTuTcr/jq558PUTrTReP9+pjqjiHehST33KU15VdvuTcsPja35+PVTuTcrvjq558PUWOtNH4/wB+o6pYh3p5lI7cgv5FIItfhDourt9yblh8bW/Px6qdyblff4au+fj1FnrTRbdfl/0z1SxC1roUjtzFLgDRXc7k3K/46uefD1E7k3K/46u+fj1FjrTQ+I6oV/h5lIyQeI/Mp4WoOlxuIO7nV2xsm5Xj/pa358PVTuTcr/jq758PUWetNF3L5f8AQmUa/wAPMpJbpSzldvuTcr/jq558PUTuTcr/AI6uefD1FjrTReP9+o6o4h3oUkF1OvOrtdybld8bXPPh6idyZld8bXPPh6idaaLx/v1MdUcR70KSDRLFXa7kzK/42t+fD1VPcm5X/HVzz4eonWmi8f79R1RxDvTzKSdBTivwjrrvV2+5Nyv+Ornnw9RO5Oyw+Prvn49ROtND3KZTKNf3oUj8hTT/ACVdzuTcr/jq558PUTuTcr/j675+PVTrTQ+I6o1/h5lI9ENv8lXc7kzK742uefD1E7k3K/46u+fj1VnrTQ+JjqjX+HmUksOf5lGnIVdzuTcr/jq558PUTuTcr/jq558PUTrTQ+I6o1/h5lI9L7imiu53JuV/x1c8+HqJ3JuV3xtc8+HqLHWmh8TPVGv8PMpHfmKEjkKu53JuV/x1c8+HqJ3JuV/x1c8+HqLPWmh8R1Rr/DzKR+RTqTqVdvuTcrvja558PUTuTcr/AI6uefD1FjrTQ9y/36hMo16a7oUjB1vrdLm6u53JuWHxtb8+HqKO5Nyv+Nrnnw9ROtNDsso6pV/h5lJbG6WV2u5Nyw+Ornnw9RT3JuV3xtc8+HqJ1povH+/Ux1RxDvQpHqp+b51dvuTcrvja558PUTuTcr/j675+PVTrTReP9+pnqliHehSTVNeVXb7kzK742uefD1E7k3K742uefD1E600Xj/fqY6o4h3oUkB00FrbtFA38fzK7ncm5XfHVzz4eoncm5YfHVzz4eoiZpotusz1Rr9mopHcW/wDlNOUfOrudydlh8dXPPx6qdyblf8dXfPh6iz1pofEdUa/w8ykd+YpfmPzK7ncm5X/HVzz4eoncm5X/AB1c8+HqJ1pofEdUa/w8ykd+Ypccqu53JuV/x1c8+HqJ3JuV/wAdXfPx6qx1pofEdUK/w8ykdxypfTcfmV3O5Nyv+Orvn49VO5Nyv+Ornnw9ROtND4/36jqhX+HmUkNjx/So1tx25FdwbJ2V/wAdXfPx6idyblf8dXPPh6idaaLtRR1Rr+9Ckhud4vZNedXb7k3LD46uefD1FHcnZX/G13z4eonWmi2WULlKv8PMqdkYL504S031uVB5/wCdauk0PvAFpfC2zLlzQcRyFbkYlZM1TZmHNQOHOhzeGx1xcBuouFulujQL7lGccxCKtla+PsQluXsMmoInMl7VMkRFxSREWHJvUeS6ytoossWGsiw5ksOZZIsmLGNhzJYcyyRBYxsOZLDmWSILGNhzJYcyyRBYxsOZLDmWSILGNhzJYcyyRBYxsOZLDmWSILGNhzJYcyyRBY8NtIAe4Ri0W09ppn0blzkB96OhdHNpDTIfFvU0x6MrnINxU4ymloX8Su857zHwBtbRSsQNbqbhS25Cj0+S2uceFL/nqUH/AKrV0oh94Ohc18lfDFhTruU9K1dKmd43oUEzXvDOBYuTV/138RYcyWHMvn4mqntPh2fqroRjCRlokx2sODS/gMLuDc7t29VtbtkyhZwv5ATWuv8AtJvqKP0tDU1V/QtvYk1ZiVJRqiTutctFYcyWHMqu92VJDfgOY/ebf+Gh2ypL5BTP7yb6i3fwLEfh/un8mj1jwv4n7L/BaKw5ksOZVdG2RKX/AACmv3k31EO2TKfIGY/ebf8AhrC4HiKf/P7fyZ6xYZ8T9i0VhzJYcy0Fk/tMy+O8xabhRmEI8i6oF4Ew6eEQQ+CxzjdvAB/FI+lb9JN1o1NLNTORkrbKdGkrIKtivhW6Cw5ksOZZItc2rGNhzJYcyyRBYx05k05lkiCxjYcyWHMskQWMdOZNOZZIgsY2HMlhzI42F7quWPNq6Ww1jirYddgqYmTS5yJLGMKg1oicFxHCtwDa9ty2KWknqnK2Ft1Q1KuupqNqOndZFLG26Et0LSeQG0JAzOx3Ew3CwzGprocm+a7c+cbFHvXMbwbBo/LW7Lr5qKeWnfoSpZT7pauGqj9JEt0GnMmnMskXibFjGw5ksOZZIgsY2HMlhzLJEFjGw5ksOZZIgsY2HMlhzLJEFjGw5ksOZZIgsY2HMlhzLJEFjGw5ksOZZIgsY2HMlhzI9xAJvoFXLHG1dLYdxrVaAcFTEyaXORZUxRUGtEXtbi0uA4Bte2662aaknqXK2Ft1Q1KuupqRqOndZFLG2HMlhzLSmz/tBwcz8cxcOQsLxqY6HJvme3PnGxQeC5jeDwQ0fl71uvXlXxUU8tO/QlSyn3S1UFVH6SFboLDmSw5lki8TYsY2HMlhzLJEFjGw5ksOZZIgsY2HMlhzLJEFjGw5ksOZZIgsY2HMlhzLJEFjGw5ksOZT0qIjuCwu5AUTWYXUlxYcyWHMqnxdsafbGe3+QcD3pIH/ACoddf1a2dsyZ3TOa9SrErGw6yl+1cKC8ObNdt7YYheLd4LW4C6U+EVkEXpXt1cUOVBjVDPL6KN35uCm4rDmSw5lki5p1rGNhzJYcyyRBYxsOZLDmWSILGNhzJYcyyRBYxsOZLDmWSILGNhzJYcyyRBYx4I5FNkspICWMhERAEREAREQBERAEREAREQBERAEREAREQBERAeH2kfAPi3qaY9GVzkHe/Muje0h4B8W9TTHoyucg71TnKnsJOP8FdZz3iPhzF04lFhdApZYhR6jJXwx4U67lPStXSpvwbehc1clvDFhTruU9K1dKW963oUEzX7dnAsXJnsJOKHwczAYmXVdYwFznUyYAaBcn+bdpYb965rw6TVu1NHtVP6NA/or/uXUjggjdvUdrZ+SPmXNwvF3UCOsy9/E6+MYG3EnNcr9G3gcu/aisH/9pn/NX/cvxkWdYtsRvvpbl0/wXUyPDYYTwWDdyLl/iL8Iaj+2Rj/fcpfg+LrXueis0bEHxzBW4a1io/SufwlpeZmYvapWWixogBJbChF7gNNbDiud6/v7U1e9/aqf80f9y3R2PYB2eU01wBBosbT/AMWErt9rZbvG/MvDE8ffR1HoWsv9f+GzhGXGV9N6ZX2+hQfY/ptRgbRuG4senTkJjXx7viSz2tF4ES1yRYaEfUr8b3cajgQxazAOhfxnZuBKSkSampiHBgQml8SJFcGtY0bySdABrqohiWIOr5kkVtltYm2F4a3DadY9K6Xvc/Ui07i7aYyroUy6Wh1iPVYjO+9rpcxGeR5s0+QlfLpm1hlhMzAhR2VuSB/HjyN2j/cc4/QvJuHVbkuka+R6uxeha7RdKlzeyLz2Bca4ZxjSzP4brUpUYLe/MGIOFDPI5u9p5iAvQC/GVqvY5i6LkspvRyskbpMW6Eoo1TXlXxc9CUXlcwMw8H4JlmxsTYglKfw7mHCiOvFiWNvesbdzuewK1hUNrPLKXj9rgQK9NC/fw5FoHzPe0/QtqKjqJW6TGKqcDRnxKkgW0kiIpvlFp7CW0tlXXJlstErUWlRnkNb7ZS5hNueV+rR5SFtiTnIE3LMmZaYhxoMVofDiQ3BzXNO4gjQg8RXxNTzQ+0aqHrT1cFQl4nIvA/s/vD0Lm9n7rnhi4cXt1M6f+IV0iiD3h6Fzcz98OGLuupn0hUiyrvTuBFc46qZnE2N2Pfw8TAJ09pY+n/iwVdzUBUh7H45rM9ppznABtFj3JO7+dhaf5+hWEx1tH5X4an4kj7bxqrMQiREZTIJjNYRxF+jPmK+Mfp5Z8QVImqupNh6ZbqoKfDUWVyJr7TbqLSOG9qbK6qTbYEzM1Kl8I2ESekiGX5zDL7dJsOcLcNHqclVqdBqFMnIE3KTDOFCjwHh7Ig5QRvG9cGammh9oxUJLT1tPUeyein7UUFfkrNQgUykzVSm3lsvJwHxorgL2awEuNugLwTWtkNlVREVVP2ItKN2pspeCD7a1Dd+bon3L2OCs2sE4nwZOYpkqu2XpUhHdBmJmeYZdrHBrXHv+Zw8um9bL6KpYl3MVENNmI0j10WyJfie6RaPr+1VldT5t0CWi1apBpsYspJe88hiOZfyXX1MDbR2V+JZyHJNrUSlzMV3BhMqUAwWvPIH6svzE3X2uH1aN0ljXyPhuK0Tn6KSJfibcRfwZGERgdCiNcHC4IsRbfdf2BWmupbG+i31kosbnlXzcS16k4epMSp1ypS0hJwu/jzMUQ2jmu62p5OPiWWtVy2TaYe9rE0nLZD6iLSOINqjKynTJhS0zVKkBuiSkiQx3QYhbfyJh3anysqUy2DNTdSpnC0ESbkiWX5CYZfby2W5+HVlr+jXyND8XodLR9InmbuRfMw3XaViCkw6nRanKz8pFF2R5aK2Ix27jFwCOTi419I77LTVqtWyprN5r2uTSat0MX/Bm/IubWe3hsxbb89zR/wDUcuksQDgEcy5tZ7eG3FvXc16VylGVd5dwIfnFbU7OJsrseumek0OSixtP/FhK7g3blSPsefh1mupY3pYSu6RpZamZN/Xghu5UVfw5OKkooJ0X8JqahS0u+PMR4cKFDBc973ABgG8knQWXB7bISVXIiXXYfoRagxntJ5WUCZdLQ63FqsVhIc2my5jNB/WaMPkJXx6ftZ5YzEwIUeFW5QE9/GkgW/3HuP0LdbhtY5ukka24HPfi1Cx2g6VL8Te6LzOAceYVxrJGbwxXZSosZ37IT7RGfpMNnN8oC9L5VqPY5jtF6WU3Y5Y5G6TFuhKKASv5RYvBa48IC3Lxf5svnwPtVtrP7ItUY+2h8scKzkSSjVx1Rm4R4MSDTYRj8B3IXCzAebhXXwKVtX5Yzc22DHbWpJrjbtseRBYOchjnG3kW43D6tzdJI18jQditE12isiG9kXg8U5vYGoeBJfGEatMmqRNx2y8KYkmmPd5a51iG6ggNN72t9C8i7alylDSfbOoaD83RPuXyyiqXpdrFU+34jSMWzpE8zdJ13LGMC6E5o3kbl+WhVGBVqLKVSTeXS87AZHguIsSxzQ4EjiuCv1k2aSeIXWtrRbG0qo5vgUPi7M2bxjvcKJI2c4kf8ow+XpW7NirKzGWXdZxBMYqkpeWhz8GBDlzCmWxeE5rohdu3W4S+7MbT2U8GaiQX1KocKE8w3f8AJ8TvgbHi5l67KPNjB2ZM1PwMLzcxGdT2w3TAjSzoXBD+EG24Q170qQ1uIYnJTLHLHZlk7FIvQYbhUVWkkMl3oq9p7tFF9FFzfeo6SsyReYx/j7CeCZJs1ievSdPa/VjIj7xIv6DBdzvICtXVHayyygTBhQIFdmQP+khyIAPRw3tP0LZio6iVNJjFVOBpTYjSQraR6IpvhFqTBW0flZiKbZKCvPpkd5HBZUoBgA/29WDykeVbUgTDI8FsWDFY9jxwmPaQQ4coK85YJYls9qoesNVDMl43Ip/dFF+VAV43Ni5KL5WKMRUXDlJfU67VZSnSkPfGmYzYbTyAE7yeIBalr+1RlbT47oUtMVSo8E24crIkNPQYhYtiGlnnS8bFVOBqVFdTU62leiG70WiKftZZZR4gbHg1yVH5UWRBH9x7lsXAGaeBMav7VhzEsnNzBHC9jEmFGtxntbwHW57L7koamJLvYqJwPmHEqSZbMkRV4nskX8w86LMnnstQ3boSiIsgIiIAiIgCIiAIiIAiIgCIiAIiIAiIgCIiA8PtH+AfFnU0x6MrnI3vV0b2kPAPi3qaY9GVzjb3pU5yp7CTj/BXWc94j4Et11UcakXCgb1LSFHqMlvDFhXruU9K1dKW963oXNbJbwxYV67lPStXSlvet6FA81+3ZwLEyZu8nFDMbkQbkUVJsYRvgnforl3iH8Iah+1xvtuXUSL8E79FcvMQ/hDUP2yN9tyl2UvaSfTmQXOnqRfXkbp7Hn4dJrqWN6WEruqkXY8/DpN9TRvSwldxaGZN/Xgh08qe7k4qfwm48OWl3x472shw2lznuNmtA1JJ4hzqhu0/nJVMyMSTFOp8zFl8MScXgysu11hN2Pw0TlubcFp0AtxklWa22sSRsO5CVJstEMOPVojKexw32eTw/wC419lQy/BBdu3roZZoI3otTIl7bDmZrxKRjkpY1tfafopsnN1GcbJ0+UmJuYiE8CDLQXRHusLmwaCTbj03L9dew7iChw2OrVCqdOZENmOnJSJCa48gLmgHTk+dXn2TsvKVgvK+QmjKQjV6tLQ5qfmXNvEJeA4Qr2uGsBsBuvwjvcVsbEVIpNdo0xS6vJy85KTUMsjQYzQ5r2kbiF7TZoWOdWMZ+VDWp8prJTpI6SzlOauCcR1vCWIIFdw5UIshOwCC18M3a8D8V7dz2E6EEdFlf/Z7zIlMzMvoFbhQ2wJ2E7tE/LA3EGM0Am39UghwPIeUKiuduEhgjNSsYZhuc+XlJjhSr3m7nQXtD2AnjIDg2/K0lbQ7HxiKLTc3pzD7nn2NWZFzgy+nbYR4QP8Aul4+ZbGN0cVVRdJjTWiXv4eJr4BXTUdd0WR35VWxddaj2rc2zlngyGymiFFrlVLocgx/vmwmi3CjOHGG3FhxkjkK2242F1QHbJxJGxBn/V2uiF0Ck8CQl2k6NDBd3/qOf5LKM4JRNq6tGv8AVTWpLcwYg6jpFcz1l2Gt65U6jWqvGqtWnY87OzLi6NMR3lz3npPENwG4cVl+ZkN0QlsNjn8EAu4Lb25N3Pp9y9fkRgg5hZoU3DToj4UtFLo05EZo5sFgBdwed2jRzuHIb9BsG4Vw/haiwqVQaTLSErCaAIcGGBfnJ3uJ4ybk8al+JY1HhrkiY26+SEKwrA5sTRZnvshzIFjbgkEcQH+dfvVqex9SGYTIUzPxJmJCwY4FsKXmgXdtj31dA/JaDcOO4nTUgkbXzTyJwDjivSVXnqb7EmJeOHzXsMCEJ6HY/wA3Ftvvp74e+tpey2RSpGUptPgyElLw5eXlmNhwYUJga2G1osGtA0AA0suDimPR1VN6NrLKu2+u3AkOE5clpKr0jn6k2W5n6YneHoXNzP3w4Yu66mfSFdI4neHoXNzP3w4Yu66mfSFMq707gYzluzOJ5ym1GfkGzLZGdjSwnZd8vMdqeW9ugkguY48bSWi44+O6/M1jnQy5jHmGw2Lg02aeniPStg7LuCJPH2ccjRam0vp8CG6cnYbSR25jNzCeQuc0Hmvx2V/qXRKRTqQylyVNlJeShs4DZeFAa2G1vIGgWsu3imNR0Evo0Zdy7V2HAwjAJcRh9Ir7NTZ2nL8BvB0aDe3F8w3eQLcWxzmfPYKzDlMPzky51ArkdsCLBe73svGcbMitG5tzYO5QbnvQvtbd+XNFwhiqmYgoEnCkpet9tZMy0FgaxsZlncNoG4ODtQLC7b7zdaEbFfCc2NDcWuhOD2kcRBuD9A+ZbiOhxOhVypqVPJTS0ZsKxBGoutF1+KHU8G7AeUL4OaOmW1e6rmfROX0MNzTp7D8lOO0MxLMikfpNBXz80fBtX+q5n0TlWjG2lRPEtWV2lTq7vQ5lwie1j9EL9cSfnnUZlLdNxvYEOM6YZLcM9q7YQGl/B3XIAFzrxL8kMfzQ6FYXYOy1ouLavU8U1+ShTsvSIjIMpLxmB0N0YjhGI4HQlo4PBvfVxO8Aq0qypjpaVJnpdE7CoqGklq6v0Ma2Ve0r6WOhw2xHQ3ta7RrnNIB6DxnoWJFwRxEagHeOLpXUGq0OkVKkvpk9TZSZk3s4DpeLBa6G5vIWkWsqAbUOB5TAGcE9RaY1zadHYybkmOJJgtiX95c77Oa6x5LX1uudheONrpFiVllOpi+X5MPjSZH3Q3JsFZpz8eouy3rk2+YZ2kxqPEivJewN7+Bc7wB75o4gHDdZWr4lzj2cJuLI584SjQXEONWgwjY72vPAP0PK6ON1aCozmKlZBWXYltJL/UlmVquSoo7PW6tW30Ph5iYppuDsFVDElWiFkrT4JiPDe+eb2a1vKXEgDnK58Zv5h4izHxO+r12aIhNcfYUkxx7VKQ+INHG629+8kE6CwVkuyP1qLK4FoNChvLW1KffGigHvmwWXAP8Aae09ICp+4ngnQ67+f/Oi7OWqCNIFqXpdV2eBws1YjK6o6KxbIm3xMmAufwGMLi7Xggan7/IPqUPBbEdDewh40c13fDmI3joPKugmzdlfQ8AYCkLSEF1ZmoDYtQnXsBiviFurQ7ia2/BAGmhO8kn+e0xlfQ8d5fVB3tfAbWZKXdGkJxjAIjYjW3EMnjY63BIOgvcagFffWeLpHo9D8t7X/wCHl1Tm6L6bT/Na9iluTmYuIst8TQqtQ5l5l3PHs2Qc89pmmcYI/Fda9nbwbaEXB6E4AxNTsXYPp2I6TG4cpUIDYsO+9t97XchBuDzgrmO03YCNBuVxOxyVqLOZd1qhxXlzabUBEhXPesitBsP7THnyr4zLQxrClSxLKm3xPbKmJSpUdFet0XZ4FjYneHoXNnPbw2Yt67mvSuXSaJ3h6FzZz28NmLeu5r0rlz8qby7hzOhnLdmcTZXY9PDpM9SxvSwVd1Ui7Hp4dZrqWN6WErvFa2ZN/XghuZU93JxU/lMRGwoLoj3ANYCSToAqJbU2c1RzBxJM0ekzkSBheSiFkKHDcW+zi1xBivPG24943dbXedLW7Vdbi4fyBxLPy8Qw4zpP2NDcDYtMVzYVxzgPv5FzxFx0LeyxQRyK6oel7LZDnZtxGSLRp2La6XUk2bvFvo5v886mI2JDIZEhuYXagOFrjiIHHdW32D8sqJ/IkY+q9OgTc/Px3skHRoYeJaExxbwmg7nOcHa77ADlW+ceYPw9i/D8ej1+lS85LRmEWewcKGfymO3tPOLFb9VmWOCoWHQuiLa5zaPK0tRTJOr7KqXsc3sLVur4brsGtUKoRpGfl3XhRoLrHnB4iDxg3B4wVfjZozQgZnYAZUYrIcvVJJ4gVKXZ3rX2uHt4+A8ai+7Ua8G6ojmPh6LhPHtXw1FiOiOpk5EgtiOFi9gPvXHkJaQfKtudj4rcWQzrmaOYh7TVqa+7L/jwnBzT02MRemN0cVTR9IYmtEv9Dzy/WzUtd0d66lW1i7RHIqxbe2aNQpTZfL6gzTpaJOwO31WNCdwX9qJ4LYIPI6zuFzADcSDZ12i56bW1QfUdonE8R7iRBmIcu0HiEOG1th5QT5VG8vUrKis/Ol0brJVmerfT0X+NbK7Ua5Glhutu5lk2G57C9sN7mN0cQ0kDTj5PKvZ7PWD4GPM4KPhubD/YcV7o06GkgmExpeW3G7hWDb79V0LodBo9JpEOmU6mSspJwmcBkCDCa1jW8lhpZSrFcbZQvSJGXUh2EYBJiLFlV1kvY5kwajPQ6PGpkOdiiQmorI8WX7Z/Nve24a624kAu16d+5fli/BnoKsDt7ZeUnC2JqZiahScKSl60YkObl4DOCwRmgO7YGjQF4JvbeW3OpJNfYnwZ6F0KKpjqab0zEtpdhza2kkpKr0L1uqKdMMpdcscPE7zSZX0TV6CN8E4cxXwMpPBhh3qmV9E1ffi/Bu6Cqtk9qvEt6Hd04HLut/7bnf2qL9sqyXY1v9uYtuT8BKcf9aKq2Vv/AG1O/tUX7ZVkuxq613Ft/iJT7UVWJjPupyeCfdCssC98N4rzLbHRaz2nM0YWWWAXT0AQ41WnnGBTYD+9MS1y93HwGCxPLoNOFcbKN+JUV27MRxa5nxM00RSZehS0OWhtB04TgIj3dN3Nb/ZULwaiSrq2sdsTWpO8er3UVGr27V1IapxPWaviKuTFZrk9Hnp+ZdwoseMbudbcLbg0aAAaBf2omGMS1mUM1SMPVSoS7dO3SslEiwx5WtIuOOxXrNmLBEpj3OKQotRZw6ZAa6cnmXt2yHDtZm/c55YDzF3HZdBadJSMhJQpSTl4EvBgsDIcKE0Naxo3AAaABS3E8ZTDnNhiZeyELwrA3Ym1Z5ZLJ+5y9m5eNLTL5WbgRIMaC7gvhRmFr2Hju0i7fL9K3NsnZ01HA2JJXDtenHx8MzsRsEdudwva95PvXtJ3MJPvm7h3wtax3jtv5e0vEOV05imXlITKzQofshsdgs6LAFu2Q3HjaG3cL7uDpvN6SP8AfDluLFe8E0WM0a6bbdn/APDXqIJsErW6DrodTWvD2B4Nw4XFl8rHmIpHCmD6jiGpPLZWnSz48S29wA0aOcmwHOV5DZQxJFxTkNQKjMxTEmYMAykdxOrnQnFgJ5yGtPlXw9u2JMM2damYBPBdMyojEcTe3MI+kNUDipf9xKd/6rFiy1a9AWpZt0blOc2cfYizDxVFrdemnlhefYsmx57TKMO5rG8u67t7jc3tovk4foFcr0d0KhUSoVKIy3DbJSr4xZfXXgA25r2Xzrngq8uyVi3L9uTVHpdMqlNkp2VgNZUJWNFbDi+yLfzj3NOruE4Eg7iOO4IE/r6pcNpm+gjv2Fb4dSpilU7pEll77lMa7hPFVFhGLWMMViQY25MSakIkNo6XFtkwHQa7ibF0jScMS8WNVI8ThS7oTi0wuDviFwsWho14WlvmB6YMiyM7L3ZEgxobha7SHAr4mEcDYPwxV6hVsP0GSkJqqOa6biy7A3tlt2m5o47C1zrvXCdmh7onMfF+bv7CQMykxsrXRy6v3P65cUur0XBVNpldq8SsVGWl2smZ6IwAx38unJe1zqQLm5XoCOZYhovoEBPCUSc7SdpE2YxGNRpmiBFg9AiIgCIiAIiIAiIgCIiAIiIAiIgCIiAIiIDw+0h4B8W9TTHoyucg709C6N7SHgHxb1NMejK5yDvSpzlT2EnH+Cus57xHwH1qBvWXGoGu5Sy5Cj0+S3hiwr13KemaulLe9b0Lmtkt4YsKddynpWrpVD1YOhQTNft2cCxcmewk4mQ3IiKKk1MIvwTv0Vy7xD+ENQ/bI323LqJF+Cd+iuXeIvwhqH7ZG+2VL8pe0k+nMgudPUi+vI3V2PPw6TfU0b0sJXcKpH2PPw6TXUsb0sJXdXPzJv68EOnlT3cnFStnZIoj25e4fggngvqxcRxEthPt9ZVP3gEK6vZDKU+dyWlqjDYSKbVoUSIfyWPa+Hf/AHnN8pVKngluhtpopJlt7VoLdyrcimaWOTElVe1Eseig5g48gwmQYWNsQMZCbwWMbVI1mBumg4WgAsOgL+nui5gX/DrEf71jesrmZK4OysxhlhRa9AwZh+MZiThiPeQhlzIwAbEa7TeHAgr1pymy0+QeH/3dC+5c6THaJj1asGtOB0osu1skbXtn1W8TnXWapUaxUXz9XqMzPzUQAPjzUUxYjgNAC5xJNhoth7G8Xte0lhot14USYaRfiMvFvybvvKuTGywyrgxoUKNgzDUOJHeWQmPkYIMRwBNgCNTYE2F9xK+lQsusC0WrQqpScI0eSnJckwZiBJQ2Ph3BB4LgLjQkdBsviozHDJTOhbEqIqWQ9abK08VS2Z0iLZUVT00UfzZtyLmpnE90TNzFT3uuXVyb14/hnrpY7UW4yudG0rSYlGz7xTJRGcHtlRfMsHK2MO2j7a8MquTpL07bGxnJi9GY5NiKbH7HTBhvzhq0V4HDh0Zwb5YsO/1BXRtdUI2KsUSuGc95L2bGZCl6vLRKfw3d6173NdDueLhOYGg8rlfQOLh5N61sysc2uVV7USxt5Tka6g0U2ousztohFl/CYmoEB8JkePDhmM/gQw94HbHWJs2+82BNhxAr+pJOo13LgLq1qSZHIqqiKZRO8PQubmfvhxxd11M+kK6RxO8PQubmf2ueGLuupn0hUoyrvTuBDs5bszibF7Hv4d49/wAyR/SwVd8jRUg7HtrnvMdSR/SwVd9a2Zd/XghuZUv+HpxUrD2Seww/hX9sj/YaqkxPgndH+Ctr2Sv8H8K/tsf7DVUuLpCd0KT5f92p9fuRHMi3xV30+x08wMP/AKLpP7DB+wF+fNHwbV7quZ9E5fpwL+BdK/YYP2AvzZpeDevdVzPonKAf/f68yyV3T/8API5lwvgm9AVwuxu+DzEA3/8AKw9CxU9hfBjoCuH2NvweYh63HoWKe5it+Gr9PuVzln3on1LIAaKk/ZEQBnfT7fmOF6aMrsDcqT9kR8N8h1HC9NGUYy57wbwUlua/dy8UNZ5B+HDCXXcr6QLpG3vQubmQXhxwjf8APct6QLpEzcOhbeat6bwNHJu7PTxKndkqe724wjCv71sCbcB5YV/8FWmltbEq8pDcbNdHhtJ6XBWj7JTIvdJYTqbW3hw40zAcbbi5sN4HTaG49AKqrDc6FEbEZ3zHB4vzarv4GqOwxqJt1kczAmji7ld4HUuA0NgsaBbQblE41rpWI1wvdhGvQvl4GrkriLCFMrclFbEgT8rDjsc0375oNukHQ8nkX88w67K4bwNVq5ORWQ4MhJxIznONgSG3A8psBy3CrxGO9LoW13/csxZG9H07/lt+1jmfOACdjtA0bFdYcguQrP8AY04jhN4vhcG7S2TdfkN4wsqu8J77vf3ziSfrVr+xrSURlFxVUbHtcaal4DTb8ZjHOI6f5wHyhWHjyomFuRfDkVpl5FdizVb4loYneHoXNnPbw24t67mvSuXSV/ekX4lzbz1t7tmLeX27mvSkrgZU3l3AkWckvTx8TZPY9PDrNdSxvSwld08SpF2PTw6TXFeixuf/AKWForti/KtXMq/768EN3KmrD04qaY29HuZs8TzQL8OdlWn/AM0H/BUW3lX422JB89s5V4sBc6W7TMW5mxmXPkFz5FQcWDb2Ugyu9Fo3t8f4I1m9q9Na7wOg2yCxg2ccLWaB/ojjp+sefr1WyiBaxWnNhqvS1WyApklCitMekxY0pHh31aQ8ub5Cx7StwOfwQS5yhde1W1UiKn/pfuTvDHo6ijcmzRT7HP8A2w2tZtIYmDLG8SA424j7Hh6L9OxO97dpKgWNuHDmQecex3/cF57aLrstiLPDE1WlIrYstFnzDhRGbnthNbDuOY8DQ8d16/YRkHze0RIx2NJbIyMzHfzDgiH9cSyn835MH/N+jkVtD/kxtFb+v9rl7XcXQucu0pf3fcW8Pf7axPm0t9Fl0aK567Wcg+n7ROKIT2kGNMsmGnla+Ex3+KjmVV/23J4Epzii9DbxPRbA/A7oOAHWuKZMcEHiPvN30q9Gt1zl2dMYS2Bc46NiGdu2ShxHQJt+/gQojS0vtzXDrcjSuhtMqkhUafCnpKdgTMtGZw4caDEDmPHKCNCOe6xmeF6ViPVupUM5Snj6EsausqLcr92SAMGW1A3cIVgW5bdpiX+myp3EPvD0KxG39j6lYjxLTMK0achzbKL2yLPRYLuExsZ4DWsBG8tAJNjpwgDqCBXd4HAPQVI8BiczD0Ryd5F8wzMlxNytXUljpjlJ4MMO9Uyvomr0Eb4N3QV5/KTwYYd6plfRNXoI3wbugqupPau4lnQ7u3hyOXFb/wBtTv7VF+2VZPsan+3cW/qJT64qrZW/9tTv7TE+2VZPsav+3MW/qJT64ysXGfdbuCfdCssD98N4qW1eucW0XEdEz3xa5/fe3EduvIHWH0BdHXai3Gueu1rSYlJ2hsSw3jSZmGTcM8rYkNpPzOuPIVHcqqiVbkXbbmSfODXLSMtsueHoFZq9DnHTlFqs5TZh7Cx0aUjuhPc24JbdpBtoDa+/oC+t7o2YF/w7xH+9Y3rL1eyKcLx86pal4sp0jPSdTlokrBZOwmvYyPdr2n32lzwS0c5VzPcnyzIuMCYf3b/a6F6q7WKYpTUk+hLFfxI9hGD1NbB6SKXRS+zWUDn8dY2npKLJzuMa7My8dhZFgxqlFex7TvBaXWIXwBa17ro4cpssxqcCYe/d0L1V/CVyyyomu2excG4ZjdpiGHE7XIwXcBwGrTYaEci048zU0af44bG9JlKqet3zIp4TsfMR78iHtvpDq8w1vMLMP+O5bUzSwvKYzy/quGJ1xZCqMs6GHgaw3fiv8juCfIvoYXw/RMN0wyFBpUpTZUvMQwJSC2EwuNrus0AXNgvo6E3I1UUqKlZKl07dSqtyZ0tIkdI2nfr1WOaGY2C8R4FxFFo+JZCJKxWOIhRrHtMy0GwfDfazgRrbeNxAIIHnS1hI960gctvouundUl8P1/2RSahCp1REAt9kSsZrIph8IXbw2G9rjUXGv0rxtWyDyjqDnOi4KkYZd/1dz4IHkY4BSqnzSxGok7Fv4f8ASH1GUHq9XU8iW/vcc/ZSYmJV/DlJmNAeNxhRSw/OFsvKrPzMLBVRgmJVo9bpocBFkahFMQuafyIhu5rrajUt5Qt/ZjbLWX8xh6ai4d9m0ifhQXOgPM06LCLwDYPD7m2mtiFTEE2udDx2XXpp6HFY3NRmzwscWqp8QweVqq/b4nTHLjFlMxrgyQxJRopfKT0IPaHCzmG9nMcOJwIII5Qvv6cSrb2N6oR42A8QU2I5xgylSbEhg7mmJDHCt5WX8vOrJgaWVf19MlNVPiTYhZWG1S1NJHKu1UJREWqb4REQBERAEREAREQBERAEREAREQBERAEREB4faR8A+Leppj0ZXOQd75F0rzgok9iXLGu4fpzoQm6lT40vAMVxawPcwgcIgGw1VQxsp5pbu3UHzyJ/w1Lst11PTwvSVyJr/gg2aqCpqZ2LExV1Gkb6arFbx7lLNG/wtB89f/w1HcpZo/G0Hzx//DUk/F6H4qEU/A8Q+EprfJbww4U67lfStXSqF3g6FTfLnZozIomYNCrM7FovsanVKDMx+1zT3O4DHhxsCwAmw5QrkMuGgcgUPzHVQ1EzFiddLE5yrSTU0D0lbbWZIiKOkrMIvwTv0Vy7xD+ENQ/bI323LqHEu6G5oO8Kl1W2U8yZmrzcxDqGHgyNMRIjLzUa9nOJF/5rnUly3WQ0z3rM617cyIZrop6lkfom3tfkfn7Hn4c5rqWN6WEruqt2ylkZjHLjMuYr1em6RFlolOiS7WyceI94c6IxwuHMbpZp1VkASVpY7URT1ivjW6WQ38uU0tPQoyRLLc8/mZhmTxjgWqYanTaDUpZ0EvGphu/FeOdrg0joXOLGWH6rhbEs7h6tyxl56RjGHEadzvyXNPGHCzmncQ4dC6eEC615njlFhPMySYavBfLVGAxzJaoy1mxoYP4pv37f6p57WXpgmLdBerX62rtPjH8FWvYj4/XQpVk5mxjHLWaifyenIcWTju4UenzTTEgvO4uABBa61tWkXsL7gtpze19jJ8r2uWwtR4Ue3wj4sV7R/Z0+0vw4t2TMfSUdxodVpVXgA+87a90vFtztIc3+8vhQdmPN2JFDXUinwxxufUWW+i5+hSSV+CVTvTPcl/IikcePUyehjRUQ8PjzMTGWMMUwcQ1uuTD52Tdw5J0B3amyZuCDDa02YbgXN7mwuVcPZCzZqOZGF40pWqfHbUqS1sOPPsg2lpu+4gjRsTS5bz3GhsNZ5bbI806bhzOOcQQjAaQ4ydLuS/8ASivAtz2bfkcrOYRw7RcL0GBRqDToEhIy4syDBbYc5J3knjJuTxrjY3W4fLEkMDbqmxU1WO5gGH4lHMs07lsu1O8+qeIqrm3/AJbTU3DlsxaTLmKZSEJarNY25EIElkW3I3hEO5i07gSLSWC/nMS0CPLvgRoTXw4jS17HC4cDvBHIuFQ1b6SdszdqfuSTEaFlbTuhf9DlnclwLb3BuDfjtxcn+K27g/aVzQoFFh0105IVSHCbwYUWoS7nxWjkL2ubwgOU3POtwZvbKNIqs9FqeB6kyjRYt3OkI7C+Wve4EMj30MX4vfD8kNWpJ3Zezbl5gsg06mTTRuiQp9ov/vBp+hTlMRwqtYnplTgpXf4Xi1BIrYEW3geJzFzNxrjavy9XrtbimNIxBFk4cse1Q5R4IIcxoIIOg98bnQaq1eyLnl/L2AMLYks3EUrCL2RWMsydhi13WHevF9RoCNRxgajwhsnY9nplnt9U6XSJe44ZhxHTEUDmaA1v95WZyWyqwrlnSnQKHLOizccATU/HIdHj23Anibf8UWF7m19VycZqsMdB6KFNabLHZwKjxVKn0syrortue7id4ehc3M/vDhi7rqZ9IV0ifqLKoWaOzNmDiHMiu16RnqC2VqdQjTMFsaaih4Y95cOEBCIBtpYE9K0su1cNNUOdKtksb+aaOapp2Nibdbnn+x6+HmP1JH9LBV4ONVs2Vci8ZZcZmRcQV2bpEWVfTYssGykeI5/Dc9jho5jRazCL35FZIXPGtfHaiKesV8a3SyG1lunlp6FGSJZblYeyVD/6fwr+2R/sNVSo3wbv0Sr17X2VmJc0KVRJfDsxT4L6dMRYkX2ZFc0FrmgDg8Frr7jvstFv2S8zi0j2ww5qLf0uN/wl38FxOkhoEjkfZdf3I1juF1k2IrLGxVbq1lxsC/gXSv2GD9gL82aXg3r/AFXM+icv3YZlYshh6Skozml8tLQ4Ty3cS1oBtzaL+WNpGNVcH1SnS7mCLOSUWBDLzZvCewtFzyXIUN0k9NfsuTtWOWm0ba7cjmFC+Db0K4fY2/B3iDrcehYtZt2S8zWsANQw5oP+txv+Et+bIuWmIcscKVSm4hjyEWNOz3siEZOI57eDwGtseE1uvvVMcbxKlnovRxvuurkQbAMMq6fEUkkYqJrNwfiqk/ZEfDfIdRwvTRldc7rKuW1fkdjHMnMWVr1BmqTCloNNhyz2zkeI15cIkR2gaxwtZ41uuBgdRHBWI+RbJYkmY6aWooljjS63K05B+HDCPXct6QLpEzvQqhZX7M2YOHsx6FXp6foDpWmVGDMxmwpmKXuYxwJ4N4YBO/Q26Vb5mjbci2MxVUNTUNdE66WNTK1HNSwPSVtlua52n8BRcw8pZ6jSYb7ZS5bN0++g7cy9mk8jmlzObhXXPmcgxpabiS01BfBjwIjocWHEFnMc02LSN4IIIN+MLqXwWuOo3HjWn8+tn/C+Ysy+ry8Z9Hrbm2M5AhhzY9t3bYZtwrWAuCDYAXsAvvA8YbR3hl9VT5zBgbq200PrJtKo5S50Y7y7kXU6iT8CPTy4uEjOwzEhwyTclliHMuSTa9rm9ljm1nNjrMWTZIV6fgQaex4eJKShmHCc4bi83Ln2Oo1sDrZeur+yvmlIzLmSIpFShDvYkKcMMkc7XtFugEjnU0DZWzQnplragaTTIV/fxIs0Yp4PM1g1PMSBzqSdKwfS9Pdul+/kRfomNaHoLO0TS0lLzE3OQ5STgRJiZmIjYUGDDbwnxHuNg1rd5JNtN66E7MuBImXuU9PoU1wfbCJean3N3dueblvPwQAy/HwV8PIXILC2XEw2rRIj6xW+BwWz0eGGiACLEQoYuGX1F7k2JF7Ehbca1oJAFr8ijeN4w2sVI4vVQlOXsDWivNN667DI2sufm17hmaw1n1Wu3w3CXq8X2wlYpGkRsQe/A6H8JvzHRdAuQHevE525Z4dzNw82m1uG+HGlyXyk5AIbFlnEWJBO8Gwu03BsLjQLRwfEEoanTVLou06GO4Y6vpdBnrJsKCZa4wrmBsWQMRYdmIcKcgsLCIjOEyKw98xzb3I3HSxuAd4Csls57QuNcdZvU3C9ZkKPCk51kYvfLwYjYg4EJzxbhPI1LQPKV5Ou7IuOIE45tIxDRZyXuS18yYsCIectDXi/lXqdnHZ7xxgXN2m4nrE5RXyUoyMIjJWYiOiHhwnsFgYYG9w41JMTq8LqoHSIqK+2rvInhVHi9LUsjVqoy917iyOLaPKV/DNQok80vlqjLPl4oG/gvaWm3zrm7mVhOq4GxpO4ZrcItmJOIRDiWs2YhnvIjOVrh8xuDqCF00sF4XOvKzC+ZlHbK12XcyZgA+xZ2A4NjQCd9juIOl2m4NguDguK9BlVHa2rtJLj+DfiESOZ66bCh+WGPsV5e1iJUsL1L2M6M0NmIMUB8GYA3cJhOtrmxFiLnVe0x1tHZm4poUSkxJuRpsvGZwI7qfAcyI9vGOG5zi0HlbY869Fi7ZNx7ITL/wCT9TpdWliTwe2RHS0XytIc3+8vj07ZfzamZlrI1Ppco2+sWNUA4Dn94HH6FLHVODTO9O5W6XiQxtJjULVgajtE01cNbxADTyX4z/kK4+wNl3OYewvOYzq0s+DN1xrWScN7bOZKg3DiOLhk8IDjaGnjTJfZYoeHqjBq+M55ldm4JD4cmyFwZVjhxuB1iW57D+qrDsYyHDDGMAaBYNAsAFw8bxxlQz0EGztJBl/AJKeTpNRtTYhmdwVWtv7LWenYsvmHRZZ0wJaB7HqsOG0lzIYJLI1h+KLkO5rHcCRaXTjWMSFDiMLIjA5rtC0jQqP0VW+jnSZnYSbEaKOtp1hf9DliAOXcL3/+LL+0CcnYEu+XgTszBgxD7+FDjOax/S0Gx8qvTj7ZrywxNPxJ2HTpijTMU8N7qXF7Wxzj+N2shzAecAL4NI2ScupWabGnKjXZ9jSD2mJMsY13MeAwOt0FTRMy0L2Ir2rdOzaQNcq4ix9o3JbvuUzZLRzKOmWwIplocQQnxQw9rY8gkMJ3A2BIG/Q8Quv4P7w9BVqNvCi4bwjlVhnC+HqfLU6B7aOjQpeA21wyE4OeTvJu9lybk3VV4t+1E7hwSdeJdagrUrKb0trJrOLiFC6jqkhVbrqvxOmOUvgww51TK+iavQRvg3dBXwcrYcSBltQIMVpa+HSpZrgeIiE24X3nC7DfjCq6T2q8S3YU/wADU8DlxW/9tTv7VF+2VZTsav8AtzFv6iU+uMvP1HZQzKj1KYjsqGHeBFjPeLzUa9i4n4pbe2QMoMUZX1Kux8RTNMitqcOAyAJOM95uwv4XC4TW/ljddTbFMTpJcPWNj7rZCA4RhdZFiaSvYqNRV1m9iNVWTsgGXMzU6bK5gUmXMWLTIfsepMhi7u0F12xNNfekm/M6+gBKs5YL+ceXgx4L4UaG2JDiNLXtcLhwOhBHIohRVT6SdszdqE4xGhZW07oX/Q5aQ3vhxGRIb3texwc17HWc07wRbUHjBW78B7U2YFDpcORqknIV1kFvBbHmOFDjkAWHCc3Rx5y0EraGb2ypRK1PRangmotoceK5znSMVnbJQm9zwLe+h68Qu0cQC1HUdl3NqWjlsGSpU40HR8GeAB57PDVN1xDCsQYizqiL4lephmL4dKvoEX6H6MebUeYdep0SQpsGQoUOK0tdGlQ58ex4g9+g6Q0FeQyKzVxBlrjA1KVixp6SnYgNSkYkQkzNzq65vaJyOO/cTYr11D2WM0J2O1k97T02GT76JFmzEIHMGNNzzXW+cjNnPCmA52BWapGNdrMEh0KNHYGwZd3LDh62PI5xJ5LLWqavCKandHGiOv3fybdJRY1VVLJJFVtu825h+o+21ElKm2WmZYTUFkUQJmH2uLDDgDwXt/FcL6hat2sM4zljQIMhS5cxq7VYb/YhiQyYUBo0MRx3Eg7m8fHpv3CGi1rWAXwMwsHYdxtQIlFxJTIU9Kv1AcLOhu4nscLFpHKCofTPhZO10jbtvsJxWRzvplZE6zrbTndh/HGL6Li6NiimYhnYFXmYnDmZkxOEZg3uREBuHDmIIHEtvUPa2x/KyrYVQolFn3gW7cGxITnc5AJB8ll9zH2yFUocy+Ng3E0vGgOvwZaqNLHs5u2MDg7/AHQvDTOzDm7DfaHSqdGH5UOoMt9Nipws+C1bUV9k/Yr1KfHaN6oy68NZlmZtKY/xdQo9IgMkqNJzUMw45kg4xntO8B7nHgjoAK03doBvoAL7/wDOnTzLdlF2Wc05uOGzjKPT2O1dEjThiWHL7xp1+jnW6sldmTDOEp+BWcSThxBUYDmvgMfCEOVgPGocIdzwnA6gncdQAUXE8LoIlSnW9+xOZluE4tiMyLUIqeKn1diHBM5hDJ9kzU4DoE9XJgz0SE8WdDhkBsNpHEeCA4jeOFY7luflUMY1oAAtZZWUFqJ3TyuldtVSxaSmbTQNib2IERF4myEREAREQBERAEREAREQBERAEREAREQBERAYloveyagLJLLFhrI8qeVSiyCABbRBvU2RYsYCIiyZMbcyaX3b1NgpWLd5jWYkAcSkblNkS1hrMSoLQDeyzsEsngDEAEWU8FTZLBEQGPBB4t+/nSykADcpsFkBERDJiAoI8iysFKWMazEDk0S3IsrBLBY1ixBGqxLRZZpYIqX2jWY2A4lKlEsDAqQFlYJZLa7hDGw4huSwHF9KyIugFk7DJA1GqgjXkWVglgiXMWI1WNgsyosEUIhAFtUG5ZWSwSxnWYg2KWF9NFkAoIBQwLaJYDW2vQpRLGTENFkdu1U2F0sFkwQRdOCL7lNgpsngLGHBU20U2CmwssW7h2GNr8SW1tb6VlYKLC6CwsEsNwUpYJYGHBHkU3tyrJRYJYEeReAz9zVouWOFzPTzhM1CYBbISDHWfMPtv/qsHG7i3akgLYHGtQbSOR1HzPYyqQZo02vSsLtUGbA4cOIwEuDIjOS5Oo1F+PctqiSD07UnX8ppYgtQlO5adPzGh8s9qfGNGq82/FcsyuyM5HdFbDhkQYspc95D3hzQCPeu151see2v8Htp5dJ4YrUWZt72FE7Uxl+d4ebDyLRGMMgs1sPx3tiYXjVKC0kCPTXiYa8DjDB7/wAhavOty2zFJsMAYnve2tHjj/2KauoMGnXT0kTgtiANxLHKdNBWqvFD+2c2YdczKxe6t1osgths7XKSkIkw5aHc+9B3uJ3ucQCTxAAAZZE4KnMwczKbh6XgvdLdtEeoRBugy7He+J5L6NHO4dK9fl/s25nYjm4ZqFNh0CSdq6YnngvA5oTSXX5ncHpVtsjssMO5ZYcdT6M10WZjkOnJ6Pbtsw8CwuRuaATwW/ignnWK/F6Wkp/QUqoq2tqPrDcFq62pSeqRUS99Z7iBDbCgNhtADWtAAG4LNTblSwUC161UspEREsQRzLGwGtt6/pYKLBYtruZJREWQY2AFlJACmwSwWETtBiRzKLDi0WdksEt2gblFm7lKWCyDFoUnfopACLFjBHBFtygAcSyQJZbmQiIsgIiIAiIgCIiAIiIAiIgCIiAIiIAiIgCIiAIiIAiIgCIiAIiIAiIgCIiAIiIAiIgCIiAIiIAiIgCIiAIiIAiIgCIiAIiIAiIgCIiAIiIAiIgCIiAIiIAiIgCIiAIiIAiIgCIiAIiIDG6jgjkWdlFgscTHaY2FrABOC3kWaLPYYVqLtMLXG5CLAWCysEsFix9a7WJREWQEREAREQBERAEREAREQBERAEREAREQBERAEREAREQBERAEREAREQBERAEREAREQBERAEREAREQBERAEREAREQBERAEREAREQBERAEREAREQBERAEREAREQBERAEREAREQBERAEREAREQBERAEREAREQBERAEREAREQBERAEREAREQBERAEREAREQBERAEREAREQBERAEREAREQBERAEREAREQBERAEREAREQBERAEREAREQBERAEREAREQBERAEREAREQBERAEREAREQBERAEREAREQBERAEREAREQBERAEREAREQBERAEREAREQBERAEREAREQBERAEREAREQBERAEREAREQBERAEREAREQBERAEREAREQBERAEREAREQBERAEREAREQBERAEREAREQBERAEREAREQBERAEREAREQBERAEREAREQBERAEREAREQBERAEREAREQBERAEREAREQBERAEREAREQBERAEREAREQBERAEREAREQBERAEREAREQBERAEREAREQBERAEREAREQBERAEREAREQBERAEREAREQBERAEREAREQBERAEREAREQBERAEREAREQBERAEREAREQBERAEREAREQBERAEREAREQBERAEREAREQBERAEREAREQBERAEREAREQBERAEREAREQBERAEREAREQBERAEREAREQBERAEREAREQBERAEREAREQBERAEREAREQBERAEREAREQBERAEREAREQBERAEREB//9k=;" vertex="1" parent="1">
                    <mxGeometry x="576.5" y="145" width="57.26" height="30" as="geometry"/>
                </mxCell>
            </root>
        </mxGraphModel>
    </diagram>
</mxfile>
